<svg width="149" height="91" viewBox="0 0 149 91" fill="none" xmlns="http://www.w3.org/2000/svg">
<path opacity="0.5" d="M39.0752 16.7681C45.6265 9.74703 55.5466 1.03593 75.8647 4.44055C89.2773 6.6873 119.44 13.7675 134.407 23.2078C149.373 32.6482 152.919 48.5824 143.919 66.0883C134.92 83.5943 121.441 89.763 121.441 89.763H34.1705C34.1705 89.763 7.60198 97.7597 8.32352 67.7931C8.8193 47.1979 31.5853 24.7944 39.0752 16.7681Z" fill="#3F6B68"/>
<path opacity="0.5" d="M7.79274 52.0058C-4.65045 55.3907 -3.29591 5.35605 19.9305 1.19265C35.552 -1.60594 48.9292 5.98179 45.1533 8.13C20.7273 22.049 11.0419 51.1238 7.79274 52.0058Z" fill="#3F6B68"/>
<path d="M46.925 45.7469H4.35432C4.29235 45.7469 4.24365 45.6877 4.24365 45.6188V19.9535C4.24365 19.8846 4.29235 19.8254 4.35432 19.8254H46.925C46.987 19.8254 47.0357 19.8846 47.0357 19.9535V45.6188C47.0357 45.6877 46.987 45.7469 46.925 45.7469ZM4.46498 45.4907H46.8143V20.0866H4.46498V45.4907Z" fill="#3F6B68"/>
<path d="M46.925 37.193H4.35432C4.29235 37.193 4.24365 37.1339 4.24365 37.0649C4.24365 36.9959 4.29235 36.9368 4.35432 36.9368H46.925C46.987 36.9368 47.0357 36.9959 47.0357 37.0649C47.0357 37.1339 46.987 37.193 46.925 37.193Z" fill="#3F6B68"/>
<path d="M46.925 28.6393H4.35432C4.29235 28.6393 4.24365 28.5801 4.24365 28.5112C4.24365 28.4422 4.29235 28.3831 4.35432 28.3831H46.925C46.987 28.3831 47.0357 28.4422 47.0357 28.5112C47.0357 28.5801 46.987 28.6393 46.925 28.6393Z" fill="#3F6B68"/>
<path d="M32.7321 45.7469C32.6702 45.7469 32.6215 45.6877 32.6215 45.6188V19.9535C32.6215 19.8846 32.6702 19.8254 32.7321 19.8254C32.7941 19.8254 32.8428 19.8846 32.8428 19.9535V45.6188C32.8428 45.6877 32.7941 45.7469 32.7321 45.7469Z" fill="#3F6B68"/>
<path d="M18.5452 45.7469C18.4832 45.7469 18.4345 45.6877 18.4345 45.6188V19.9535C18.4345 19.8846 18.4832 19.8254 18.5452 19.8254C18.6071 19.8254 18.6558 19.8846 18.6558 19.9535V45.6188C18.6558 45.6877 18.6071 45.7469 18.5452 45.7469Z" fill="#3F6B68"/>
<path d="M74.8831 48.4364L56.2427 55.0141L36.5398 71.2784L34.1716 88.7597C34.1716 88.7597 41.927 88.7745 52.7766 88.7794C76.2863 88.7893 114.329 88.74 119.517 88.336C111.168 75.5058 97.3703 53.0826 97.3703 53.0826L83.0635 49.4169L74.8875 48.4315L74.8831 48.4364Z" fill="white"/>
<path opacity="0.5" d="M60.0545 83.7346C60.0545 83.7346 54.9639 87.4791 51.8653 88.3365C48.7667 89.1938 61.1258 88.7356 61.1258 88.7356L60.0545 83.7395V83.7346Z" fill="#99D2E4"/>
<path opacity="0.5" d="M67.7039 50.965L67.9872 58.9863L74.5518 62.795L71.7321 67.7369L83.0996 88.0266H83.9628L91.218 65.0861L89.4341 61.4252L92.5858 58.2571L89.412 51.0439L68.5582 50.6645L67.7039 50.965Z" fill="#99D2E4"/>
<path d="M76.8857 43.7529L68.5903 50.6656L70.8169 60.165L76.4387 61.1997C76.4387 61.1997 73.765 65.4764 74.1412 66.0677C74.5219 66.6589 84.1498 85.5839 84.1498 85.5839L90.378 64.6684L87.7708 60.6429C87.7708 60.6429 91.8123 58.4898 91.6839 57.9035C91.5555 57.3122 89.4352 51.045 89.4352 51.045L83.8931 46.1918L76.8813 43.7529H76.8857Z" fill="white"/>
<path d="M86.1095 19.5028C86.1095 19.5028 79.5935 19.7984 77.4245 23.336C75.251 26.8786 77.6812 31.8008 76.4019 34.6486C75.1226 37.4965 76.4108 42.0639 77.3713 42.3497C78.3319 42.6355 86.1095 19.4978 86.1095 19.4978V19.5028Z" fill="#313C60"/>
<path d="M80.5488 33.676L74.3737 50.5217L83.2269 71.2648L85.8386 51.5219L84.7629 49.8664L88.6804 35.0655L80.5488 33.676Z" fill="#EE975A"/>
<path opacity="0.5" d="M97.2845 63.0153C97.3686 73.9337 93.876 88.5869 93.876 88.5869C93.876 88.5869 94.9826 89.1486 95.1553 88.5869C95.3235 88.0252 96.2619 88.5869 96.2619 88.5869C96.2619 88.5869 97.2845 81.3638 97.5412 75.9243C97.7979 70.4897 97.2845 63.0153 97.2845 63.0153Z" fill="#99D2E4"/>
<path opacity="0.5" d="M55.0384 81.6057C56.5833 79.9748 64.8743 72.8207 67.1895 68.5981C67.6764 67.7113 67.278 66.1346 67.1895 65.6764C72.4129 64.6712 73.431 62.3309 73.431 62.3309L68.212 54.6742C68.212 54.6742 61.187 56.6499 55.5209 58.9755C52.4976 60.2171 46.7607 63.4296 42.064 66.1543L36.5396 71.2785L35.5923 78.2651C35.7783 79.6151 35.9465 80.6301 36.0394 80.7533C36.3316 81.1425 36.6503 88.2868 36.6724 88.7401H36.8451C38.2926 88.5331 47.4557 89.622 55.034 81.6106L55.0384 81.6057Z" fill="#99D2E4"/>
<path d="M70.4941 52.8673C72.4197 52.1775 73.9159 52.4091 73.2784 53.5276C73.0173 53.9858 72.3931 54.6707 72.3931 54.6707L68.21 53.9415L70.4941 52.8673Z" fill="#3F6B68"/>
<path d="M99.31 65.4523L99.0532 66.2455L68.0227 53.6519L68.6425 51.7254L99.31 65.4523Z" fill="white"/>
<path d="M99.1045 66.38L99.0203 66.3455L67.9057 53.7174L68.5874 51.5889L68.6715 51.6283L99.4187 65.3946L99.1045 66.38ZM68.1359 53.5942L98.9982 66.1189L99.193 65.5129L68.6937 51.8599L68.1403 53.5942H68.1359Z" fill="#2D5B98"/>
<path d="M110.975 74.9381C118.69 72.7012 124.029 74.4207 127.265 82.1858C128.464 85.0682 129.11 88.325 128.274 88.1772C127.437 88.0294 115.087 88.3349 115.087 88.3349L110.975 74.9381Z" fill="white"/>
<path d="M70.2812 53.0114C69.9669 54.2333 68.3291 54.7507 66.6204 54.1693C64.9161 53.583 63.7874 52.1196 64.1016 50.8928C64.4159 49.6708 66.0538 49.1535 67.7625 49.7349C69.4667 50.3212 70.5955 51.7846 70.2812 53.0114Z" fill="#EF9690"/>
<path d="M81.7308 61.3111C81.328 60.434 77.043 58.478 77.7601 58.7588C78.4773 59.0397 80.7658 59.9463 80.0487 58.9707C79.3272 57.9951 73.8205 53.6839 72.0675 53.6248C70.4253 53.5706 68.1278 53.2405 66.9681 54.2653C64.1041 56.8077 61.5986 57.798 61.5986 57.798C61.5986 57.798 59.8811 58.5617 59.8014 58.5814C56.1627 59.3205 54.2239 74.4171 54.2239 74.4171C54.6842 74.4073 62.6256 67.1201 66.4015 63.6662C67.1496 63.9668 69.5178 63.8337 71.3858 62.7153C72.4084 62.1043 73.8337 60.907 73.8337 60.907C73.8337 60.907 76.3835 61.7545 77.1271 61.9861C79.1191 62.602 82.1292 62.1832 81.7264 61.3061L81.7308 61.3111Z" fill="#3F6B68"/>
<path d="M35.4805 72.2046C32.2712 76.644 31.5408 87.7447 34.9493 88.2817C42.9482 89.5382 65.8957 67.6964 65.8957 67.6964L62.1729 57.3889C62.1729 57.3889 40.0576 65.8733 35.4805 72.2046Z" fill="white"/>
<path d="M98.7729 65.9282C98.7463 65.9282 98.7197 65.9233 98.6976 65.9134L95.0324 64.3663C94.9173 64.317 94.8553 64.1692 94.8996 64.0362C94.9438 63.9032 95.0678 63.8342 95.1873 63.8835L98.8525 65.4306C98.9676 65.4798 99.0296 65.6277 98.9853 65.7607C98.9543 65.8642 98.8658 65.9282 98.7773 65.9282H98.7729Z" fill="#3F6B68"/>
<path d="M94.4967 64.1247C94.4702 64.1247 94.4436 64.1198 94.4215 64.1099L93.5229 63.7306C93.4078 63.6813 93.3458 63.5335 93.3901 63.4004C93.4344 63.2674 93.5583 63.1984 93.6778 63.2477L94.5764 63.6271C94.6915 63.6764 94.7535 63.8242 94.7092 63.9572C94.6782 64.0607 94.5897 64.1247 94.5012 64.1247H94.4967Z" fill="#3F6B68"/>
<path d="M92.9423 63.463C92.9158 63.463 92.8892 63.4581 92.8671 63.4482L85.2666 60.2357C85.1515 60.1865 85.0895 60.0387 85.1338 59.9056C85.1781 59.7726 85.302 59.7036 85.4215 59.7529L93.022 62.9653C93.1371 63.0146 93.1991 63.1624 93.1548 63.2955C93.1238 63.3989 93.0353 63.463 92.9468 63.463H92.9423Z" fill="#3F6B68"/>
<path d="M83.962 59.6677C83.9355 59.6677 83.9089 59.6628 83.8868 59.653L81.8195 58.7809C81.7045 58.7316 81.6425 58.5838 81.6867 58.4507C81.731 58.3177 81.855 58.2487 81.9745 58.298L84.0417 59.1701C84.1568 59.2194 84.2188 59.3672 84.1745 59.5002C84.1435 59.6037 84.055 59.6677 83.9665 59.6677H83.962Z" fill="#3F6B68"/>
<path d="M80.9272 58.3919C80.9006 58.3919 80.8741 58.387 80.8519 58.3771L79.099 57.638C78.9839 57.5888 78.9219 57.4409 78.9662 57.3079C79.0105 57.1749 79.1344 57.1059 79.2539 57.1552L81.0069 57.8942C81.122 57.9435 81.1839 58.0913 81.1397 58.2244C81.1087 58.3278 81.0201 58.3919 80.9316 58.3919H80.9272Z" fill="#3F6B68"/>
<path d="M94.8005 85.7768C94.0258 85.7768 93.4017 85.0525 93.4017 84.1607V67.7437H96.2037V84.1607C96.2037 85.0525 95.5751 85.7768 94.8049 85.7768H94.8005Z" fill="white"/>
<path d="M94.8012 85.8765C93.9779 85.8765 93.3139 85.1029 93.3139 84.1569V67.6364H96.293V84.1569C96.293 85.1029 95.6246 85.8765 94.8057 85.8765H94.8012ZM93.491 67.8384V84.1569C93.491 84.9896 94.0797 85.6695 94.8012 85.6695C95.5228 85.6695 96.1115 84.9896 96.1115 84.1569V67.8384H93.491Z" fill="#2D5B98"/>
<path d="M99.3108 85.7768C98.5361 85.7768 97.912 85.0525 97.912 84.1607V67.7437H100.714V84.1607C100.714 85.0525 100.085 85.7768 99.3152 85.7768H99.3108Z" fill="white"/>
<path d="M99.3096 85.8765C98.4863 85.8765 97.8223 85.1029 97.8223 84.1569V67.6364H100.801V84.1569C100.801 85.1029 100.133 85.8765 99.314 85.8765H99.3096ZM97.9993 67.8384V84.1569C97.9993 84.9896 98.5881 85.6695 99.3096 85.6695C100.031 85.6695 100.62 84.9896 100.62 84.1569V67.8384H97.9993Z" fill="#2D5B98"/>
<path d="M104.001 85.7768C103.226 85.7768 102.602 85.0525 102.602 84.1607V67.7437H105.404V84.1607C105.404 85.0525 104.775 85.7768 104.005 85.7768H104.001Z" fill="white"/>
<path d="M104.001 85.8765C103.178 85.8765 102.514 85.1029 102.514 84.1569V67.6364H105.493V84.1569C105.493 85.1029 104.825 85.8765 104.006 85.8765H104.001ZM102.691 67.8384V84.1569C102.691 84.9896 103.28 85.6695 104.001 85.6695C104.723 85.6695 105.312 84.9896 105.312 84.1569V67.8384H102.691Z" fill="#2D5B98"/>
<path d="M104 85.017C103.452 85.017 103.009 84.5045 103.009 83.8689V72.2262H104.996V83.8689C104.996 84.4996 104.554 85.017 104.005 85.017H104Z" fill="#3F6B68"/>
<path d="M99.308 85.0165C98.7591 85.0165 98.3164 84.504 98.3164 83.8684V77.0296H100.304V83.8684C100.304 84.4991 99.8613 85.0165 99.3124 85.0165H99.308Z" fill="#3F6B68"/>
<path d="M108.508 85.7768C107.733 85.7768 107.109 85.0525 107.109 84.1607V67.7437H109.911V84.1607C109.911 85.0525 109.283 85.7768 108.512 85.7768H108.508Z" fill="white"/>
<path d="M108.507 85.8765C107.683 85.8765 107.019 85.1029 107.019 84.1569V67.6364H109.998V84.1569C109.998 85.1029 109.33 85.8765 108.511 85.8765H108.507ZM107.196 67.8384V84.1569C107.196 84.9896 107.785 85.6695 108.507 85.6695C109.228 85.6695 109.817 84.9896 109.817 84.1569V67.8384H107.196Z" fill="#2D5B98"/>
<path d="M108.505 85.0275C107.974 85.0275 107.54 84.5298 107.54 83.9139V71.0444H109.47V83.9139C109.47 84.5298 109.036 85.0275 108.505 85.0275Z" fill="#3F6B68"/>
<path d="M99.5307 71.0842L99.6413 73.8828C99.6502 74.0946 99.5085 74.2769 99.3226 74.2868C99.1367 74.2966 98.9818 74.134 98.9729 73.9173C98.9729 73.9074 98.9729 73.8926 98.9729 73.8828L99.0836 71.0842C99.088 70.9413 99.1942 70.8329 99.3182 70.8378C99.4333 70.8428 99.5262 70.9511 99.5307 71.0842Z" fill="#3F6B68"/>
<path d="M99.5295 66.4602L99.6269 69.3475C99.6358 69.5495 99.4941 69.7219 99.3215 69.7318C99.1444 69.7416 98.9983 69.579 98.9895 69.377C98.9895 69.3672 98.9895 69.3573 98.9895 69.3475L99.0869 66.4602C99.0913 66.3173 99.1931 66.2089 99.317 66.2138C99.4321 66.2188 99.5251 66.3272 99.5295 66.4602Z" fill="#3F6B68"/>
<path d="M112.9 78.6269H90.5277C90.4495 78.6269 90.386 78.6975 90.386 78.7846V80.1691C90.386 80.2562 90.4495 80.3267 90.5277 80.3267H112.9C112.978 80.3267 113.041 80.2562 113.041 80.1691V78.7846C113.041 78.6975 112.978 78.6269 112.9 78.6269Z" fill="#F2DA91"/>
<path d="M112.9 86.3284H90.5277C90.4495 86.3284 90.386 86.3989 90.386 86.486V87.8705C90.386 87.9576 90.4495 88.0282 90.5277 88.0282H112.9C112.978 88.0282 113.041 87.9576 113.041 87.8705V86.486C113.041 86.3989 112.978 86.3284 112.9 86.3284Z" fill="#F2DA91"/>
<path d="M92.3011 79.4733H91.0927C91.0218 79.4733 90.9643 79.5373 90.9643 79.6162V87.0315C90.9643 87.1104 91.0218 87.1743 91.0927 87.1743H92.3011C92.372 87.1743 92.4295 87.1104 92.4295 87.0315V79.6162C92.4295 79.5373 92.372 79.4733 92.3011 79.4733Z" fill="#F2DA91"/>
<path d="M112.352 79.4733H111.237C111.173 79.4733 111.122 79.5306 111.122 79.6014V87.0462C111.122 87.117 111.173 87.1743 111.237 87.1743H112.352C112.416 87.1743 112.468 87.117 112.468 87.0462V79.6014C112.468 79.5306 112.416 79.4733 112.352 79.4733Z" fill="#F2DA91"/>
<path opacity="0.3" d="M80.5656 45.0322C82.6373 54.0685 87.1569 53.97 89.1444 53.97C90.7468 53.97 92.0748 52.8712 92.9115 51.94L89.4454 51.0531V51.0433L83.8989 46.1901L80.5656 45.0322Z" fill="#3F6B68"/>
<path d="M80.5481 33.6751L79.5476 36.4047C79.9903 48.0721 82.8499 52.6493 85.5147 53.9649L85.8378 51.521L84.7622 49.8655L88.6797 35.0596L80.5481 33.6702V33.6751Z" fill="#E1813B"/>
<path d="M103.29 29.09C100.545 34.4014 99.6642 35.6677 96.6851 35.9189C93.706 36.1702 96.9418 26.9516 96.9418 26.9516L103.29 29.09Z" fill="#313C60"/>
<path d="M99.0378 35.5818C99.8778 28.5277 96.6687 22.2353 91.8701 21.5274C87.0715 20.8194 82.5004 25.9641 81.6605 33.0182C80.8205 40.0723 84.0296 46.3647 88.8282 47.0727C93.6269 47.7806 98.1979 42.6359 99.0378 35.5818Z" fill="#EE975A"/>
<path d="M135.034 83.3637C133.799 83.3637 132.799 82.2058 132.799 80.7819V55.3334H137.27V80.7819C137.27 82.2058 136.269 83.3637 135.034 83.3637Z" fill="white"/>
<path d="M135.033 83.4633C133.749 83.4633 132.709 82.2611 132.709 80.7781V55.2262H137.362V80.7781C137.362 82.2562 136.317 83.4633 135.038 83.4633H135.033ZM132.886 55.4331V80.7781C132.886 82.1429 133.851 83.2564 135.033 83.2564C136.215 83.2564 137.18 82.1429 137.18 80.7781V55.4331H132.886Z" fill="#2D5B98"/>
<path d="M135.033 82.1906C134.152 82.1906 133.435 81.3677 133.435 80.3478V64.9014H136.627V80.3478C136.627 81.3677 135.914 82.1906 135.029 82.1906H135.033Z" fill="#A4DCEE"/>
<path d="M138.793 75.932H130.896C130.537 75.932 130.245 75.5969 130.245 75.183C130.245 74.7692 130.537 74.4341 130.896 74.4341H138.793C139.152 74.4341 139.444 74.7692 139.444 75.183C139.444 75.5969 139.152 75.932 138.793 75.932Z" fill="#F2DA91"/>
<path d="M139.2 85.02H130.489C130.354 85.02 130.245 85.1413 130.245 85.291V87.656C130.245 87.8056 130.354 87.927 130.489 87.927H139.2C139.335 87.927 139.444 87.8056 139.444 87.656V85.291C139.444 85.1413 139.335 85.02 139.2 85.02Z" fill="#F2DA91"/>
<path d="M132.285 75.1772H131.095V86.3272H132.285V75.1772Z" fill="#F2DA91"/>
<path d="M138.932 75.1772H137.741V86.3272H138.932V75.1772Z" fill="#F2DA91"/>
<path d="M136.264 61.9912C136.264 62.3804 135.994 62.6908 135.657 62.6908C135.321 62.6908 135.051 62.3755 135.051 61.9912C135.051 61.6068 135.321 61.2915 135.657 61.2915C135.994 61.2915 136.264 61.6068 136.264 61.9912Z" fill="#A4DCEE"/>
<path d="M134.226 59.0891C134.39 59.0891 134.522 58.9347 134.522 58.7442C134.522 58.5537 134.39 58.3993 134.226 58.3993C134.062 58.3993 133.929 58.5537 133.929 58.7442C133.929 58.9347 134.062 59.0891 134.226 59.0891Z" fill="#A4DCEE"/>
<path d="M136.163 56.8901C136.163 57.3631 135.831 57.7523 135.419 57.7523C135.007 57.7523 134.675 57.368 134.675 56.8901C134.675 56.4121 135.007 56.0278 135.419 56.0278C135.831 56.0278 136.163 56.4121 136.163 56.8901Z" fill="#A4DCEE"/>
<path d="M135.049 53.8276C135.049 54.0641 134.881 54.2562 134.678 54.2562C134.474 54.2562 134.306 54.0641 134.306 53.8276C134.306 53.5911 134.474 53.3989 134.678 53.3989C134.881 53.3989 135.049 53.5911 135.049 53.8276Z" fill="white"/>
<path d="M136.481 60.4617C136.481 60.6637 136.339 60.8312 136.162 60.8312C135.985 60.8312 135.843 60.6637 135.843 60.4617C135.843 60.2597 135.985 60.0921 136.162 60.0921C136.339 60.0921 136.481 60.2597 136.481 60.4617Z" fill="#A4DCEE"/>
<path d="M134.224 67.4516C134.564 67.4516 134.839 67.1318 134.839 66.7372C134.839 66.3426 134.564 66.0228 134.224 66.0228C133.884 66.0228 133.608 66.3426 133.608 66.7372C133.608 67.1318 133.884 67.4516 134.224 67.4516Z" fill="white"/>
<path d="M135.943 68.0813C135.943 68.2638 135.814 68.4119 135.655 68.4119C135.495 68.4119 135.367 68.2638 135.367 68.0813C135.367 67.8987 135.495 67.7507 135.655 67.7507C135.814 67.7507 135.943 67.8987 135.943 68.0813Z" fill="white"/>
<path d="M135.05 72.5832C135.05 72.7115 134.961 72.8151 134.846 72.8151C134.731 72.8151 134.642 72.7115 134.642 72.5832C134.642 72.4549 134.731 72.3513 134.846 72.3513C134.961 72.3513 135.05 72.4549 135.05 72.5832Z" fill="white"/>
<path d="M135.939 77.5C135.939 77.8646 135.683 78.1652 135.364 78.1652C135.045 78.1652 134.788 77.8695 134.788 77.5C134.788 77.1305 135.045 76.8349 135.364 76.8349C135.683 76.8349 135.939 77.1305 135.939 77.5Z" fill="white"/>
<path d="M134.639 79.7756C134.857 79.7756 135.033 79.5705 135.033 79.3174C135.033 79.0643 134.857 78.8592 134.639 78.8592C134.422 78.8592 134.245 79.0643 134.245 79.3174C134.245 79.5705 134.422 79.7756 134.639 79.7756Z" fill="white"/>
<path d="M136.547 51.1218C136.547 51.5702 136.233 51.9397 135.839 51.9397C135.445 51.9397 135.131 51.5751 135.131 51.1218C135.131 50.6685 135.445 50.3039 135.839 50.3039C136.233 50.3039 136.547 50.6685 136.547 51.1218Z" fill="white"/>
<path d="M134.246 48.9228C134.246 49.2135 134.043 49.445 133.79 49.445C133.538 49.445 133.335 49.2085 133.335 48.9228C133.335 48.637 133.538 48.4005 133.79 48.4005C134.043 48.4005 134.246 48.637 134.246 48.9228Z" fill="white"/>
<path d="M23.8311 65.9567V56.7973H18.5678V65.9567C18.5678 66.1095 18.5501 66.2622 18.5191 66.41L14.3803 85.8129C14.1235 87.0151 14.9115 88.173 15.9827 88.173H26.4206C27.4919 88.173 28.2798 87.0151 28.0231 85.8129L23.8842 66.41C23.8532 66.2622 23.8355 66.1095 23.8355 65.9567H23.8311Z" fill="white"/>
<path d="M26.4204 88.2727H15.9824C15.4468 88.2727 14.9466 87.9918 14.6146 87.504C14.2826 87.0163 14.1675 86.3905 14.2959 85.7845L18.4348 66.3816C18.4658 66.2387 18.479 66.0958 18.479 65.9529V56.69H23.9193V65.9529C23.9193 66.0958 23.9326 66.2436 23.9636 66.3816L28.1025 85.7845C28.2309 86.3856 28.1158 87.0113 27.7838 87.504C27.4518 87.9918 26.9516 88.2727 26.4159 88.2727H26.4204ZM18.6605 56.892V65.9529C18.6605 66.1155 18.6428 66.2781 18.6118 66.4309L14.473 85.8338C14.3579 86.3757 14.4641 86.9374 14.7607 87.3759C15.0573 87.8144 15.5044 88.0657 15.9869 88.0657H26.4248C26.9073 88.0657 27.3544 87.8144 27.651 87.3759C27.9475 86.9374 28.0538 86.3757 27.9387 85.8338L23.7998 66.4309C23.7644 66.2732 23.7511 66.1106 23.7511 65.9529V56.892H18.665H18.6605Z" fill="#2D5B98"/>
<path d="M23.6393 67.8088C23.1081 67.794 20.7399 68.7252 18.5 68.5922L15.1933 84.5412C14.9941 85.7138 15.6094 86.8471 16.4505 86.8471H25.9456C26.7866 86.8471 27.4063 85.7138 27.2027 84.5412L23.6349 67.8088H23.6393Z" fill="#3F6B68"/>
<path d="M23.8914 73.1096C23.8914 73.7403 23.4488 74.2527 22.8999 74.2527C22.351 74.2527 21.9083 73.7403 21.9083 73.1096C21.9083 72.4789 22.351 71.9665 22.8999 71.9665C23.4488 71.9665 23.8914 72.4789 23.8914 73.1096Z" fill="white"/>
<path d="M20.4621 67.2894C20.4621 67.5702 20.2629 67.8018 20.0195 67.8018C19.776 67.8018 19.5768 67.5751 19.5768 67.2894C19.5768 67.0036 19.776 66.7769 20.0195 66.7769C20.2629 66.7769 20.4621 67.0036 20.4621 67.2894Z" fill="#3F6B68"/>
<path d="M21.7714 62.5911C22.0232 62.5911 22.2273 62.355 22.2273 62.0639C22.2273 61.7727 22.0232 61.5367 21.7714 61.5367C21.5196 61.5367 21.3154 61.7727 21.3154 62.0639C21.3154 62.355 21.5196 62.5911 21.7714 62.5911Z" fill="#3F6B68"/>
<path d="M21.6216 59.1933C21.6216 59.7993 21.1967 60.292 20.6699 60.292C20.1432 60.292 19.7182 59.7993 19.7182 59.1933C19.7182 58.5872 20.1432 58.0945 20.6699 58.0945C21.1967 58.0945 21.6216 58.5872 21.6216 59.1933Z" fill="#3F6B68"/>
<path d="M21.0238 81.8716C21.5127 81.8716 21.9091 81.415 21.9091 80.8517C21.9091 80.2884 21.5127 79.8318 21.0238 79.8318C20.5348 79.8318 20.1385 80.2884 20.1385 80.8517C20.1385 81.415 20.5348 81.8716 21.0238 81.8716Z" fill="white"/>
<path d="M19.9869 70.067C19.9869 70.4809 19.6947 70.8159 19.3406 70.8159C18.9865 70.8159 18.6943 70.4809 18.6943 70.067C18.6943 69.6531 18.9865 69.3181 19.3406 69.3181C19.6947 69.3181 19.9869 69.6531 19.9869 70.067Z" fill="white"/>
<path d="M18.2618 77.1516C18.472 77.1516 18.6424 76.9553 18.6424 76.7131C18.6424 76.4709 18.472 76.2746 18.2618 76.2746C18.0515 76.2746 17.8811 76.4709 17.8811 76.7131C17.8811 76.9553 18.0515 77.1516 18.2618 77.1516Z" fill="white"/>
<path d="M18.2607 85.1476C18.2607 85.5861 17.9552 85.9409 17.5746 85.9409C17.1939 85.9409 16.8884 85.5861 16.8884 85.1476C16.8884 84.7091 17.1939 84.3544 17.5746 84.3544C17.9552 84.3544 18.2607 84.7091 18.2607 85.1476Z" fill="white"/>
<path d="M28.8061 71.4876V64.6685H24.8885V71.4876C24.8885 71.6009 24.8752 71.7142 24.8531 71.8275L21.7722 86.2738C21.5818 87.1656 22.1662 88.0278 22.9629 88.0278H30.7316C31.5284 88.0278 32.1127 87.1656 31.9224 86.2738L28.8415 71.8275C28.8193 71.7142 28.8061 71.6009 28.8061 71.4876Z" fill="white"/>
<path d="M30.731 88.1275H22.9623C22.555 88.1275 22.1788 87.9156 21.9264 87.5461C21.6741 87.1766 21.5856 86.7036 21.683 86.2453L24.7639 71.7991C24.786 71.6956 24.7949 71.5922 24.7949 71.4838V64.5612H28.8895V71.4838C28.8895 71.5872 28.9028 71.6956 28.9205 71.7991L32.0014 86.2453C32.0988 86.7036 32.0103 87.1766 31.7579 87.5461C31.5056 87.9156 31.1294 88.1275 30.7221 88.1275H30.731ZM24.9764 64.7681V71.4838C24.9764 71.6069 24.9631 71.7301 24.9365 71.8484L21.8556 86.2946C21.7715 86.6888 21.8468 87.0977 22.0637 87.418C22.2806 87.7382 22.6081 87.9205 22.9578 87.9205H30.7265C31.0807 87.9205 31.4038 87.7382 31.6207 87.418C31.8376 87.0977 31.9129 86.6888 31.8288 86.2946L28.7478 71.8484C28.7213 71.7301 28.708 71.6069 28.708 71.4838V64.7681H24.9675H24.9764Z" fill="#2D5B98"/>
<path d="M29.7146 78.8546C29.4578 79.1551 28.4442 79.2044 27.8997 79.1551C26.1822 78.9925 25.6554 78.4998 24.0662 78.4062L22.5833 85.6096C22.4417 86.4423 22.8799 87.2503 23.4775 87.2503H30.2236C30.8212 87.2503 31.2595 86.4472 31.1178 85.6096L29.719 78.8546H29.7146Z" fill="#99D2E4"/>
<path d="M29.0315 77.3727C29.0315 77.8457 28.6995 78.2251 28.2923 78.2251C27.885 78.2251 27.553 77.8457 27.553 77.3727C27.553 76.8997 27.885 76.5203 28.2923 76.5203C28.6995 76.5203 29.0315 76.8997 29.0315 77.3727Z" fill="#99D2E4"/>
<path d="M28.0688 74.6307C28.2497 74.6307 28.3964 74.4608 28.3964 74.2513C28.3964 74.0418 28.2497 73.8719 28.0688 73.8719C27.8879 73.8719 27.7412 74.0418 27.7412 74.2513C27.7412 74.4608 27.8879 74.6307 28.0688 74.6307Z" fill="#99D2E4"/>
<path d="M27.046 68.2037C27.046 68.4205 26.8955 68.593 26.7052 68.593C26.5149 68.593 26.3643 68.4156 26.3643 68.2037C26.3643 67.9919 26.5149 67.8145 26.7052 67.8145C26.8955 67.8145 27.046 67.9919 27.046 68.2037Z" fill="#99D2E4"/>
<path d="M27.4191 70.1419C27.4191 70.5952 27.1004 70.9598 26.7109 70.9598C26.3213 70.9598 26.0026 70.5952 26.0026 70.1419C26.0026 69.6886 26.3213 69.324 26.7109 69.324C27.1004 69.324 27.4191 69.6886 27.4191 70.1419Z" fill="#99D2E4"/>
<path d="M26.3983 83.7383C26.3983 84.1571 26.1017 84.497 25.7387 84.497C25.3757 84.497 25.0792 84.1571 25.0792 83.7383C25.0792 83.3195 25.3757 82.9795 25.7387 82.9795C26.1017 82.9795 26.3983 83.3195 26.3983 83.7383Z" fill="white"/>
<path d="M26.1173 79.8328C26.1173 80.1382 25.9004 80.3895 25.6348 80.3895C25.3692 80.3895 25.1523 80.1382 25.1523 79.8328C25.1523 79.5273 25.3692 79.276 25.6348 79.276C25.9004 79.276 26.1173 79.5273 26.1173 79.8328Z" fill="white"/>
<path d="M28.3516 84.0668C28.3516 84.2494 28.223 84.3974 28.0678 84.3974C27.9127 84.3974 27.7841 84.2494 27.7841 84.0668C27.7841 83.8842 27.9127 83.7362 28.0678 83.7362C28.223 83.7362 28.3516 83.8842 28.3516 84.0668Z" fill="white"/>
<path d="M24.6629 85.7745C24.6629 86.0997 24.4327 86.3658 24.1538 86.3658C23.875 86.3658 23.6448 86.0997 23.6448 85.7745C23.6448 85.4493 23.875 85.1833 24.1538 85.1833C24.4327 85.1833 24.6629 85.4493 24.6629 85.7745Z" fill="white"/>
<path d="M29.0619 86.8478C29.4848 86.8478 29.8277 86.4507 29.8277 85.9609C29.8277 85.4711 29.4848 85.074 29.0619 85.074C28.6389 85.074 28.2961 85.4711 28.2961 85.9609C28.2961 86.4507 28.6389 86.8478 29.0619 86.8478Z" fill="white"/>
<path d="M95.0955 35.3779C95.0734 35.3484 94.498 34.698 93.3603 34.8064L93.2851 33.7816C94.8742 33.6288 95.7064 34.629 95.7418 34.6684L95.0911 35.373L95.0955 35.3779Z" fill="white"/>
<path opacity="0.5" d="M93.0128 36.663C92.247 38.9689 90.286 40.2992 88.6393 39.6341C86.9926 38.9689 86.2755 36.5645 87.0457 34.2586C87.8115 31.9527 89.7725 30.6224 91.4192 31.2876C93.0659 31.9527 93.783 34.3572 93.0128 36.663Z" fill="#D9E3EA"/>
<path opacity="0.5" d="M99.03 38.571C98.3173 40.7143 96.737 42.0495 95.502 41.5519C94.267 41.0543 93.842 38.911 94.5591 36.7677C95.2718 34.6244 96.8521 33.2892 98.0872 33.7868C99.3222 34.2844 99.7471 36.4277 99.03 38.571Z" fill="#D9E3EA"/>
<path d="M89.5162 40.0628C89.1975 40.0628 88.8743 40.0037 88.5689 39.8805C87.8252 39.5799 87.2232 38.9296 86.8691 38.0476C86.4132 36.9095 86.3999 35.4954 86.8425 34.17C87.6526 31.7409 89.7375 30.3416 91.4949 31.0511C92.2386 31.3517 92.8406 32.0021 93.1947 32.884C93.6507 34.0222 93.6639 35.4363 93.2213 36.7616C92.5529 38.762 91.0213 40.0677 89.5162 40.0677V40.0628ZM90.5388 31.3813C89.2152 31.3813 87.8562 32.5588 87.2542 34.3572C86.8558 35.5496 86.8647 36.8158 87.2719 37.8308C87.5774 38.5945 88.0776 39.1365 88.715 39.3927C88.9762 39.4962 89.2506 39.5504 89.5251 39.5504C90.8486 39.5504 92.2076 38.3728 92.8096 36.5744C93.208 35.3821 93.1991 34.1158 92.7919 33.1008C92.4865 32.3371 91.9863 31.7951 91.3488 31.5389C91.0877 31.4355 90.8132 31.3813 90.5388 31.3813Z" fill="white"/>
<path d="M96.0462 41.9142C95.8337 41.9142 95.6256 41.8748 95.4309 41.7959C94.9351 41.5939 94.5367 41.1603 94.2844 40.5297C93.8683 39.4901 93.8904 38.0514 94.3508 36.6767C94.7093 35.5927 95.2936 34.6714 95.9975 34.0801C96.7234 33.4642 97.4937 33.277 98.1621 33.5431C98.6579 33.7451 99.0563 34.1787 99.3086 34.8093C99.7247 35.8489 99.7025 37.2877 99.2422 38.6623C98.8836 39.7463 98.2993 40.6676 97.5955 41.2589C97.082 41.6925 96.5508 41.9142 96.0462 41.9142ZM97.5379 33.9372C96.5065 33.9372 95.3423 35.1197 94.7625 36.859C94.3464 38.1056 94.3198 39.3965 94.6872 40.3129C94.8864 40.8105 95.1963 41.1554 95.5725 41.3082C96.6925 41.7615 98.1532 40.4903 98.8217 38.4751C99.2378 37.2285 99.2643 35.9376 98.8969 35.0212C98.6977 34.5236 98.3878 34.1787 98.0116 34.0259C97.8567 33.9668 97.7017 33.9372 97.5379 33.9372Z" fill="white"/>
<g opacity="0.5">
<path opacity="0.5" d="M99.2937 35.5955L94.2075 38.6552C94.181 39.5864 94.3757 40.4043 94.7697 40.9512L99.1963 37.9605C99.3955 37.113 99.4221 36.2853 99.2893 35.5906L99.2937 35.5955Z" fill="white"/>
<path opacity="0.5" d="M98.5502 34.0791L94.7301 36.2914C94.6681 36.4441 94.6061 36.6018 94.553 36.7644C94.4423 37.0994 94.3582 37.4345 94.3007 37.7597L99.0637 34.833C98.9309 34.5275 98.7583 34.2713 98.5458 34.0791H98.5502Z" fill="white"/>
<path opacity="0.5" d="M92.7996 32.5892C90.9493 33.6041 88.6386 34.8704 86.7396 35.91C86.6998 36.8659 86.9078 37.7626 87.3195 38.4573L93.2998 35.2399C93.3751 34.2545 93.1936 33.3184 92.7996 32.5941V32.5892Z" fill="white"/>
<path opacity="0.5" d="M87.1326 34.0165L91.8425 31.5135C91.7097 31.4248 91.5637 31.3509 91.4176 31.2918C89.8284 30.6512 87.9516 31.8633 87.1326 34.0165Z" fill="white"/>
</g>
<path d="M83.634 34.8875C82.1466 35.6857 82.7885 32.7245 82.7619 30.2364C82.7442 28.5907 80.1768 19.648 83.9616 17.6575C87.7463 15.667 91.1282 17.0564 93.3238 16.0217C95.5194 14.987 101.761 17.0662 102.398 20.5349C102.903 23.2842 104.142 25.1812 104.997 26.95C105.851 28.7237 102.814 31.7687 100.358 31.9658C96.6925 32.2614 91.8011 24.2204 89.1495 24.8855C86.498 25.5507 84.8734 34.2273 83.6428 34.8875H83.634Z" fill="#313C60"/>
<path d="M81.6655 27.5074L87.9734 32.4493L87.212 33.6023L81.3955 27.9164L81.6655 27.5074Z" fill="white"/>
<path d="M82.7888 30.9288C82.7888 33.3037 81.8592 35.5504 80.5445 35.5504C79.2298 35.5504 78.163 33.6239 78.163 31.2491C78.163 28.8742 79.2298 26.9477 80.5445 26.9477C81.8592 26.9477 82.7888 28.549 82.7888 30.9239V30.9288Z" fill="#EE975A"/>
<path opacity="0.5" d="M119.813 76.393C123.518 77.3784 125.475 79.901 126.245 82.5715C127.011 85.242 128.268 87.8287 125.125 88.1096C121.987 88.3904 118.224 87.4346 118.104 87.1734C117.985 86.9123 119.818 76.388 119.818 76.388L119.813 76.393Z" fill="#99D2E4"/>
<path d="M121.897 77.0287C125.987 79.0686 125.473 86.2128 124.225 86.8139C118.404 89.6125 115.474 87.7649 113.039 86.3212C110.604 84.8825 111.122 82.1825 111.122 82.1825C111.122 82.1825 111.233 80.7241 115.084 78.8567C117.895 77.4919 121.897 77.0238 121.897 77.0238V77.0287Z" fill="#3F6B68"/>
<path d="M123.355 78.1655C120.261 74.613 115.985 75.0565 114.064 75.9286C112.143 76.8007 108.898 78.2985 111.125 78.6286C113.351 78.9538 116.277 78.4857 117.3 78.8651C118.322 79.2494 123.355 78.1655 123.355 78.1655Z" fill="#3F6B68"/>
<path d="M48.9209 33.5056H44.3482C44.2685 33.5056 44.1933 33.4563 44.1535 33.3775L41.8649 28.8051C41.8251 28.7263 41.8251 28.6278 41.8649 28.5489L44.1535 23.9766C44.1933 23.8978 44.2685 23.8485 44.3482 23.8485H48.9209C49.0006 23.8485 49.0758 23.8978 49.1157 23.9766L51.4042 28.5489C51.4441 28.6278 51.4441 28.7263 51.4042 28.8051L49.1157 33.3775C49.0758 33.4563 49.0006 33.5056 48.9209 33.5056ZM44.4766 32.9932H48.7925L50.9527 28.677L48.7925 24.3609H44.4766L42.3164 28.677L44.4766 32.9932Z" fill="white"/>
<path d="M50.1364 28.8064C50.0965 28.8064 50.0611 28.7817 50.039 28.7423L48.286 25.2342C48.255 25.1751 48.2727 25.0963 48.3259 25.0569C48.379 25.0224 48.4454 25.0421 48.4764 25.1061L50.2293 28.6142C50.2603 28.6733 50.2426 28.7522 50.1895 28.7916C50.1718 28.8015 50.1541 28.8113 50.1319 28.8113L50.1364 28.8064Z" fill="white"/>
<path d="M43.1246 28.8083C43.1246 28.8083 43.0848 28.8034 43.0671 28.7886C43.014 28.7541 42.9963 28.6753 43.0272 28.6112L44.7802 25.1032C44.8112 25.044 44.8776 25.0194 44.9307 25.0539C44.9838 25.0884 45.0015 25.1672 44.9705 25.2313L43.2176 28.7393C43.1955 28.7788 43.16 28.8034 43.1202 28.8034L43.1246 28.8083Z" fill="white"/>
<path d="M48.3828 32.3132H44.8769C44.8149 32.3132 44.7662 32.2541 44.7662 32.1851C44.7662 32.1161 44.8149 32.057 44.8769 32.057H48.3828C48.4447 32.057 48.4934 32.1161 48.4934 32.1851C48.4934 32.2541 48.4447 32.3132 48.3828 32.3132Z" fill="white"/>
<path d="M58.1091 33.5056C58.0338 33.5056 57.9586 33.4612 57.9143 33.3775L55.6257 28.8051C55.5859 28.7263 55.5859 28.6278 55.6257 28.5489L57.9143 23.9766C57.9541 23.8978 58.0294 23.8485 58.1091 23.8485H62.6817C62.8057 23.8485 62.9031 23.9618 62.9031 24.1047C62.9031 24.2476 62.8013 24.3609 62.6817 24.3609H58.2374L56.0773 28.677L58.2994 33.1213C58.3614 33.2444 58.326 33.4021 58.2197 33.4711C58.1843 33.4957 58.1445 33.5056 58.1091 33.5056Z" fill="white"/>
<path d="M41.9925 38.0891C41.9526 38.0891 41.9172 38.0792 41.8818 38.0546C41.7756 37.9856 41.7402 37.828 41.8021 37.7048L44.0907 33.1324C44.1527 33.0093 44.2899 32.9649 44.3961 33.0388C44.5024 33.1078 44.5378 33.2655 44.4758 33.3886L42.1872 37.961C42.1474 38.0447 42.0722 38.0891 41.9925 38.0891Z" fill="white"/>
<path d="M62.6844 24.3614C62.6446 24.3614 62.6092 24.3516 62.5738 24.3269C62.4675 24.2579 62.4321 24.1003 62.4941 23.9771L64.7826 19.4048C64.8446 19.2816 64.9818 19.2372 65.0881 19.3111C65.1943 19.3801 65.2297 19.5378 65.1678 19.661L62.8792 24.2333C62.8394 24.3171 62.7641 24.3614 62.6844 24.3614Z" fill="white"/>
<path d="M55.8208 28.9338H51.2482C51.1685 28.9338 51.0932 28.8845 51.0534 28.8057L48.7648 24.2333C48.725 24.1545 48.725 24.0559 48.7648 23.9771L51.0534 19.4048C51.1154 19.2816 51.2526 19.2372 51.3588 19.3111C51.4651 19.3801 51.5005 19.5378 51.4385 19.661L49.2164 24.1052L51.3765 28.4213H55.8208C55.9448 28.4213 56.0422 28.5347 56.0422 28.6775C56.0422 28.8204 55.9404 28.9338 55.8208 28.9338Z" fill="white"/>
<path d="M72.8026 18.1623H66.3663C66.0387 18.1623 65.7731 17.8519 65.7731 17.4774C65.7731 17.1029 66.0387 16.7925 66.3663 16.7925H72.8026C73.1302 16.7925 73.3957 17.1029 73.3957 17.4774C73.3957 17.8519 73.1302 18.1623 72.8026 18.1623Z" fill="white"/>
<path d="M72.8026 16.1106H66.3663C66.0387 16.1106 65.7731 15.8002 65.7731 15.4258C65.7731 15.0513 66.0387 14.7409 66.3663 14.7409H72.8026C73.1302 14.7409 73.3957 15.0513 73.3957 15.4258C73.3957 15.8002 73.1302 16.1106 72.8026 16.1106Z" fill="white"/>
<path d="M67.6264 25.5979H64.8553C64.5012 25.5979 64.209 25.2629 64.209 24.849C64.209 24.4351 64.5012 24.1001 64.8553 24.1001H67.6264C67.9805 24.1001 68.2727 24.4351 68.2727 24.849C68.2727 25.2629 67.9805 25.5979 67.6264 25.5979Z" fill="white"/>
<path d="M55.4538 16.7925H51.824C51.7384 16.7925 51.6691 16.8697 51.6691 16.965V18.4776C51.6691 18.5728 51.7384 18.6501 51.824 18.6501H55.4538C55.5394 18.6501 55.6088 18.5728 55.6088 18.4776V16.965C55.6088 16.8697 55.5394 16.7925 55.4538 16.7925Z" fill="white"/>
<path d="M65.0398 34.056H59.1347C59.0344 34.056 58.9532 34.1464 58.9532 34.258V36.0071C58.9532 36.1187 59.0344 36.2091 59.1347 36.2091H65.0398C65.14 36.2091 65.2213 36.1187 65.2213 36.0071V34.258C65.2213 34.1464 65.14 34.056 65.0398 34.056Z" fill="white"/>
<path d="M41.4431 38.4089H37.5078C37.4247 38.4089 37.3573 38.4839 37.3573 38.5764V40.0496C37.3573 40.1421 37.4247 40.2172 37.5078 40.2172H41.4431C41.5262 40.2172 41.5936 40.1421 41.5936 40.0496V38.5764C41.5936 38.4839 41.5262 38.4089 41.4431 38.4089Z" fill="white"/>
<path d="M125.742 42.6977H122.515C122.444 42.6977 122.378 42.6484 122.342 42.5745L120.727 39.1107C120.691 39.0368 120.691 38.9383 120.727 38.8644L122.342 35.4006C122.378 35.3267 122.444 35.2775 122.515 35.2775H125.742C125.813 35.2775 125.879 35.3267 125.915 35.4006L127.53 38.8644C127.566 38.9383 127.566 39.0368 127.53 39.1107L125.915 42.5745C125.879 42.6484 125.813 42.6977 125.742 42.6977ZM122.63 42.205H125.627L127.128 38.9876L125.627 35.7702H122.63L121.13 38.9876L122.63 42.205Z" fill="white"/>
<path d="M130.702 46.2451H127.475C127.405 46.2451 127.338 46.1959 127.303 46.122L125.687 42.6582C125.652 42.5843 125.652 42.4858 125.687 42.4119L127.303 38.9481C127.338 38.8742 127.405 38.8249 127.475 38.8249H130.702C130.773 38.8249 130.84 38.8742 130.875 38.9481L132.491 42.4119C132.526 42.4858 132.526 42.5843 132.491 42.6582L130.875 46.122C130.84 46.1959 130.773 46.2451 130.702 46.2451ZM127.591 45.7524H130.587L132.088 42.535L130.587 39.3176H127.591L126.09 42.535L127.591 45.7524Z" fill="white"/>
<path d="M120.778 46.2464C120.743 46.2464 120.712 46.2365 120.681 46.2119C120.588 46.1429 120.552 45.9951 120.61 45.8769L122.226 42.4131C122.279 42.2949 122.403 42.2555 122.496 42.3244C122.589 42.3934 122.624 42.5412 122.567 42.6595L120.951 46.1232C120.915 46.2021 120.849 46.2464 120.778 46.2464Z" fill="white"/>
<path d="M137.187 46.2094C137.116 46.2094 137.05 46.165 137.014 46.0862L135.399 42.6224C135.345 42.5042 135.376 42.3564 135.469 42.2874C135.562 42.2184 135.686 42.2578 135.739 42.3761L137.355 45.8398C137.408 45.9581 137.377 46.1059 137.284 46.1749C137.253 46.1995 137.218 46.2094 137.187 46.2094Z" fill="white"/>
<path d="M120.782 39.3215H117.555C117.444 39.3215 117.355 39.2131 117.355 39.0752C117.355 38.9372 117.444 38.8288 117.555 38.8288H120.782C120.892 38.8288 120.981 38.9372 120.981 39.0752C120.981 39.2131 120.892 39.3215 120.782 39.3215Z" fill="white"/>
<path d="M135.547 42.6971H132.32C132.249 42.6971 132.183 42.6478 132.147 42.5739L130.531 39.1102C130.496 39.0363 130.496 38.9377 130.531 38.8638L132.147 35.4001C132.2 35.2818 132.324 35.2424 132.417 35.3114C132.51 35.3804 132.546 35.5282 132.488 35.6465L130.93 38.987L132.43 42.2044H135.542C135.653 42.2044 135.742 42.3128 135.742 42.4508C135.742 42.5887 135.653 42.6971 135.542 42.6971H135.547Z" fill="white"/>
<path d="M131.513 42.7213C131.477 42.7213 131.446 42.7016 131.429 42.6573L130.127 39.8636C130.101 39.8045 130.114 39.7306 130.163 39.6961C130.211 39.6616 130.269 39.6813 130.3 39.7405L131.601 42.5341C131.628 42.5932 131.615 42.6671 131.566 42.7016C131.548 42.7115 131.535 42.7164 131.517 42.7164L131.513 42.7213Z" fill="white"/>
<path d="M122.891 41.8437C122.855 41.8437 122.824 41.824 122.807 41.7797L121.505 38.986C121.479 38.9269 121.492 38.853 121.541 38.8185C121.589 38.784 121.647 38.8037 121.678 38.8628L122.979 41.6565C123.006 41.7156 122.993 41.7895 122.944 41.824C122.926 41.8339 122.913 41.8388 122.895 41.8388L122.891 41.8437Z" fill="white"/>
<path d="M126.579 39.1173C126.543 39.1173 126.512 39.0976 126.495 39.0533L125.193 36.2596C125.167 36.2005 125.18 36.1266 125.229 36.0921C125.277 36.0576 125.335 36.0773 125.366 36.1364L126.667 38.9301C126.694 38.9892 126.681 39.0631 126.632 39.0976C126.614 39.1075 126.601 39.1124 126.583 39.1124L126.579 39.1173Z" fill="white"/>
<path d="M138.919 40.5041H135.453C135.387 40.5041 135.334 40.5636 135.334 40.6371V41.7654C135.334 41.8389 135.387 41.8985 135.453 41.8985H138.919C138.985 41.8985 139.039 41.8389 139.039 41.7654V40.6371C139.039 40.5636 138.985 40.5041 138.919 40.5041Z" fill="white"/>
<path d="M133.762 32.748H130.871C130.778 32.748 130.703 32.8318 130.703 32.9352V34.5021C130.703 34.6055 130.778 34.6893 130.871 34.6893H133.762C133.855 34.6893 133.93 34.6055 133.93 34.5021V32.9352C133.93 32.8318 133.855 32.748 133.762 32.748Z" fill="white"/>
<path d="M140.476 46.5869H136.235C136.164 46.5869 136.107 46.6508 136.107 46.7297V47.9418C136.107 48.0207 136.164 48.0847 136.235 48.0847H140.476C140.547 48.0847 140.604 48.0207 140.604 47.9418V46.7297C140.604 46.6508 140.547 46.5869 140.476 46.5869Z" fill="white"/>
<path d="M121.19 46.6298H117.135C117.067 46.6298 117.011 46.6915 117.011 46.7677V47.9059C117.011 47.9821 117.067 48.0438 117.135 48.0438H121.19C121.258 48.0438 121.314 47.9821 121.314 47.9059V46.7677C121.314 46.6915 121.258 46.6298 121.19 46.6298Z" fill="white"/>
<path d="M116.866 38.1385H113.391C113.311 38.1385 113.245 38.2113 113.245 38.3011V39.6461C113.245 39.7359 113.311 39.8087 113.391 39.8087H116.866C116.947 39.8087 117.012 39.7359 117.012 39.6461V38.3011C117.012 38.2113 116.947 38.1385 116.866 38.1385Z" fill="white"/>
<path d="M10.4066 40.2365C11.5581 40.2365 12.4915 39.1578 12.4915 37.8271C12.4915 36.4965 11.5581 35.4178 10.4066 35.4178C9.25511 35.4178 8.32166 36.4965 8.32166 37.8271C8.32166 39.1578 9.25511 40.2365 10.4066 40.2365Z" fill="white"/>
<path d="M22.7771 42.834H8.40837C8.19589 42.834 8.02325 42.6369 8.02325 42.3906C8.02325 42.1442 8.19589 41.9472 8.40837 41.9472H22.7771C22.9896 41.9472 23.1623 42.1442 23.1623 42.3906C23.1623 42.6369 22.9896 42.834 22.7771 42.834Z" fill="white"/>
<path d="M22.7771 44.6965H8.40837C8.19589 44.6965 8.02325 44.4994 8.02325 44.2531C8.02325 44.0067 8.19589 43.8096 8.40837 43.8096H22.7771C22.9896 43.8096 23.1623 44.0067 23.1623 44.2531C23.1623 44.4994 22.9896 44.6965 22.7771 44.6965Z" fill="white"/>
<path d="M32.7224 61.5274C34.7442 61.5274 36.3832 59.6347 36.3832 57.3C36.3832 54.9652 34.7442 53.0725 32.7224 53.0725C30.7006 53.0725 29.0616 54.9652 29.0616 57.3C29.0616 59.6347 30.7006 61.5274 32.7224 61.5274Z" fill="white"/>
<path d="M32.7213 60.3581C31.265 60.3581 30.0786 58.9884 30.0786 57.3033C30.0786 55.6182 31.265 54.2485 32.7213 54.2485C34.1777 54.2485 35.364 55.6182 35.364 57.3033C35.364 58.9884 34.1777 60.3581 32.7213 60.3581ZM32.7213 54.5096C31.3845 54.5096 30.3 55.7611 30.3 57.3033C30.3 58.8455 31.3845 60.097 32.7213 60.097C34.0582 60.097 35.1427 58.8455 35.1427 57.3033C35.1427 55.7611 34.0582 54.5096 32.7213 54.5096Z" fill="#3F6B68"/>
<path d="M36.7692 55.1269C36.6895 55.1269 36.6098 55.0777 36.57 54.989C36.5124 54.8609 36.5567 54.7081 36.663 54.6441L49.8233 46.7312C49.9339 46.6671 50.0667 46.7164 50.1243 46.8396C50.1818 46.9677 50.1375 47.1204 50.0313 47.1845L36.871 55.0974C36.84 55.1171 36.8046 55.1269 36.7692 55.1269Z" fill="white"/>
<path d="M44.6383 57.5576H44.6295L37.3433 57.193C37.2194 57.1881 37.1264 57.0649 37.1308 56.927C37.1353 56.7841 37.2415 56.6757 37.361 56.6806L44.6472 57.0452C44.7711 57.0501 44.8641 57.1733 44.8597 57.3113C44.8553 57.4492 44.7579 57.5576 44.6383 57.5576Z" fill="white"/>
<path d="M53.6194 45.6584C53.6194 46.6734 52.9067 47.4962 52.0258 47.4962C51.1449 47.4962 50.4322 46.6734 50.4322 45.6584C50.4322 44.6435 51.1449 43.8206 52.0258 43.8206C52.9067 43.8206 53.6194 44.6435 53.6194 45.6584Z" fill="white"/>
<path d="M49.0314 57.3046C49.0314 58.3885 48.2701 59.2705 47.3272 59.2705C46.3843 59.2705 45.623 58.3885 45.623 57.3046C45.623 56.2206 46.3843 55.3387 47.3272 55.3387C48.2701 55.3387 49.0314 56.2206 49.0314 57.3046Z" fill="white"/>
<path d="M115.994 58.3002H113.542C113.179 58.3002 112.887 57.9356 112.887 57.4872V54.4521C112.887 54.0037 113.179 53.6391 113.542 53.6391H115.994C116.357 53.6391 116.65 54.0037 116.65 54.4521V57.4872C116.65 57.9356 116.357 58.3002 115.994 58.3002ZM113.542 54.1368C113.401 54.1368 113.285 54.2796 113.285 54.457V57.4921C113.285 57.6695 113.401 57.8124 113.542 57.8124H115.994C116.136 57.8124 116.251 57.6695 116.251 57.4921V54.457C116.251 54.2796 116.136 54.1368 115.994 54.1368H113.542Z" fill="white"/>
<path d="M115.994 65.0909H113.542C113.179 65.0909 112.887 64.7263 112.887 64.2779V61.2428C112.887 60.7944 113.179 60.4298 113.542 60.4298H115.994C116.357 60.4298 116.65 60.7944 116.65 61.2428V64.2779C116.65 64.7263 116.357 65.0909 115.994 65.0909ZM113.542 60.9275C113.401 60.9275 113.285 61.0704 113.285 61.2477V64.2828C113.285 64.4602 113.401 64.6031 113.542 64.6031H115.994C116.136 64.6031 116.251 64.4602 116.251 64.2828V61.2477C116.251 61.0704 116.136 60.9275 115.994 60.9275H113.542Z" fill="white"/>
<path d="M114.766 57.0896H114.757C114.7 57.0896 114.647 57.0502 114.611 56.996L113.544 55.3553C113.474 55.2469 113.491 55.0942 113.575 55.0104C113.659 54.9266 113.788 54.9414 113.854 55.0498L114.779 56.4787L116.829 53.9412C116.909 53.8427 117.033 53.8427 117.112 53.9412C117.192 54.0398 117.192 54.1925 117.112 54.291L114.908 57.0206C114.872 57.065 114.819 57.0946 114.766 57.0946V57.0896Z" fill="#EF9690"/>
<path d="M114.766 63.7165H114.757C114.7 63.7165 114.647 63.6771 114.611 63.6229L113.544 61.9822C113.474 61.8738 113.491 61.721 113.575 61.6373C113.659 61.5535 113.788 61.5683 113.854 61.6767L114.779 63.1056L116.829 60.5681C116.909 60.4696 117.033 60.4696 117.112 60.5681C117.192 60.6666 117.192 60.8194 117.112 60.9179L114.908 63.6475C114.872 63.6919 114.819 63.7215 114.766 63.7215V63.7165Z" fill="#EF9690"/>
<path d="M126.242 56.3178H119.505C119.319 56.3178 119.164 56.1305 119.164 55.899C119.164 55.6674 119.314 55.4801 119.505 55.4801H126.242C126.428 55.4801 126.583 55.6674 126.583 55.899C126.583 56.1305 126.432 56.3178 126.242 56.3178Z" fill="white"/>
<path d="M126.242 57.952H119.505C119.319 57.952 119.164 57.7648 119.164 57.5332C119.164 57.3017 119.314 57.1144 119.505 57.1144H126.242C126.428 57.1144 126.583 57.3017 126.583 57.5332C126.583 57.7648 126.432 57.952 126.242 57.952Z" fill="white"/>
<path d="M126.242 63.1806H119.505C119.319 63.1806 119.164 62.9934 119.164 62.7618C119.164 62.5302 119.314 62.343 119.505 62.343H126.242C126.428 62.343 126.583 62.5302 126.583 62.7618C126.583 62.9934 126.432 63.1806 126.242 63.1806Z" fill="white"/>
<path d="M123.595 64.8013H119.505C119.319 64.8013 119.164 64.614 119.164 64.3825C119.164 64.1509 119.314 63.9637 119.505 63.9637H123.595C123.781 63.9637 123.936 64.1509 123.936 64.3825C123.936 64.614 123.785 64.8013 123.595 64.8013Z" fill="white"/>
<path opacity="0.5" d="M137.123 9.76155H135.002C134.863 9.76155 134.75 9.88729 134.75 10.0424V12.7326C134.75 12.8877 134.863 13.0134 135.002 13.0134H137.123C137.262 13.0134 137.375 12.8877 137.375 12.7326V10.0424C137.375 9.88729 137.262 9.76155 137.123 9.76155Z" fill="#3F6B68"/>
<path opacity="0.5" d="M142.384 9.76155H140.264C140.125 9.76155 140.012 9.88729 140.012 10.0424V12.7326C140.012 12.8877 140.125 13.0134 140.264 13.0134H142.384C142.524 13.0134 142.637 12.8877 142.637 12.7326V10.0424C142.637 9.88729 142.524 9.76155 142.384 9.76155Z" fill="#3F6B68"/>
<path d="M148.037 9.76155H145.917C145.777 9.76155 145.664 9.88729 145.664 10.0424V12.7326C145.664 12.8877 145.777 13.0134 145.917 13.0134H148.037C148.176 13.0134 148.289 12.8877 148.289 12.7326V10.0424C148.289 9.88729 148.176 9.76155 148.037 9.76155Z" fill="#3F6B68"/>
<path d="M17.5527 21.7716H11.05C10.8375 21.7716 10.6649 21.5745 10.6649 21.3281C10.6649 21.0818 10.8375 20.8847 11.05 20.8847H17.5527C17.7651 20.8847 17.9378 21.0818 17.9378 21.3281C17.9378 21.5745 17.7651 21.7716 17.5527 21.7716Z" fill="white"/>
<path d="M17.5527 23.3551H11.05C10.8375 23.3551 10.6649 23.1581 10.6649 22.9117C10.6649 22.6653 10.8375 22.4683 11.05 22.4683H17.5527C17.7651 22.4683 17.9378 22.6653 17.9378 22.9117C17.9378 23.1581 17.7651 23.3551 17.5527 23.3551Z" fill="white"/>
<path d="M17.5527 25.2527H11.05C10.8375 25.2527 10.6649 25.0556 10.6649 24.8093C10.6649 24.5629 10.8375 24.3658 11.05 24.3658H17.5527C17.7651 24.3658 17.9378 24.5629 17.9378 24.8093C17.9378 25.0556 17.7651 25.2527 17.5527 25.2527Z" fill="white"/>
<path d="M31.5103 31.5271H23.2857C23.073 31.5271 22.9006 31.719 22.9006 31.9557V35.7299C22.9006 35.9666 23.073 36.1585 23.2857 36.1585H31.5103C31.723 36.1585 31.8954 35.9666 31.8954 35.7299V31.9557C31.8954 31.719 31.723 31.5271 31.5103 31.5271Z" fill="#3F6B68"/>
<path opacity="0.5" d="M143.889 17.148H119.552C119.476 17.148 119.415 17.2164 119.415 17.3008V18.5769C119.415 18.6612 119.476 18.7296 119.552 18.7296H143.889C143.965 18.7296 144.027 18.6612 144.027 18.5769V17.3008C144.027 17.2164 143.965 17.148 143.889 17.148Z" fill="#3F6B68"/>
<path opacity="0.5" d="M143.889 20.1436H119.552C119.476 20.1436 119.415 20.212 119.415 20.2963V21.5724C119.415 21.6568 119.476 21.7252 119.552 21.7252H143.889C143.965 21.7252 144.027 21.6568 144.027 21.5724V20.2963C144.027 20.212 143.965 20.1436 143.889 20.1436Z" fill="#3F6B68"/>
</svg>
