<svg width="110" height="106" viewBox="0 0 110 106" fill="none" xmlns="http://www.w3.org/2000/svg">
<path d="M54.8582 104.994C84.6032 104.994 108.716 81.714 108.716 52.9969C108.716 24.2798 84.6032 1 54.8582 1C25.1131 1 1 24.2798 1 52.9969C1 81.714 25.1131 104.994 54.8582 104.994Z" stroke="#6699FF" stroke-width="1.86082" stroke-miterlimit="10"/>
<path d="M35.6318 52.1474C34.8744 52.1474 34.2578 52.6274 34.2578 53.2179V62.9049C34.0294 65.1067 31.8979 66.1733 31.2927 66.398C24.6318 67.9332 24.0647 63.0116 24.0647 63.0116V60.8974C24.0647 60.8974 24.0761 48.422 24.0571 47.8163C23.7336 43.9841 19.7941 42.9937 19.2308 42.8337C14.1837 41.489 11.6335 44.2622 11.1692 44.8374V37.4055C11.1692 36.815 10.5526 36.3351 9.79513 36.3351C9.03769 36.3351 8.42108 36.815 8.42108 37.4055V58.0709C8.42108 58.6613 9.03389 59.1413 9.79513 59.1413C10.5564 59.1413 11.1692 58.6613 11.1692 58.0709V48.3839C11.3976 46.1821 13.529 45.1155 14.1342 44.8907C20.7951 43.3556 21.3623 48.2772 21.3623 48.2772V52.2122C21.3623 54.753 21.3623 58.3223 21.3623 60.7603V61.3659C21.3623 62.5316 21.3661 63.3353 21.3699 63.4725C21.6934 67.3046 25.6329 68.2951 26.1962 68.455C31.2432 69.7997 33.7934 67.0266 34.2578 66.4514V73.8833C34.2578 74.4737 34.8744 74.9537 35.6318 74.9537C36.3893 74.9537 37.0059 74.4737 37.0059 73.8833V53.2179C37.0059 52.6274 36.3893 52.1474 35.6318 52.1474Z" fill="#0DB04B"/>
<path d="M30.4436 50.658C30.1239 46.8716 26.2301 45.8888 25.6706 45.7326C20.6807 44.4032 18.1609 47.1459 17.7004 47.7135V40.3653C17.7004 39.7825 17.0914 39.3102 16.3416 39.3102C15.5917 39.3102 14.9827 39.7825 14.9827 40.3653V60.7946C14.9827 61.3774 15.5917 61.8498 16.3416 61.8498C17.0914 61.8498 17.7004 61.3774 17.7004 60.7946V51.218C17.9249 49.0429 20.0336 47.9877 20.6312 47.7668C27.216 46.2507 27.7793 51.1152 27.7793 51.1152V55.0083C27.7793 56.5929 27.7793 58.5776 27.7793 60.4327C27.7793 61.0079 28.3769 61.4726 29.1191 61.4726C29.8613 61.4726 30.4589 61.0079 30.4589 60.4327C30.4589 56.7339 30.4589 51.058 30.4513 50.658" fill="#D71921"/>
<path d="M71.9544 69.6207V66.1962L72.5862 66.12V66.3181C72.7537 66.1885 72.9174 66.12 73.0811 66.12C73.4274 66.12 73.6977 66.2419 73.9032 66.4895C74.1049 66.7371 74.2077 67.0228 74.2077 67.3504C74.2077 67.678 74.1049 67.9675 73.9032 68.2113C73.7015 68.4589 73.4274 68.5808 73.0811 68.5808C72.8565 68.5656 72.689 68.497 72.5862 68.3827V69.6207H71.9544ZM72.5862 67.1294V67.5294C72.6167 67.8037 72.7728 67.9675 73.0582 68.017C73.4198 67.9865 73.6215 67.7808 73.6672 67.4037C73.652 66.9428 73.4503 66.7066 73.0582 66.6914C72.7728 66.7409 72.6167 66.8895 72.5862 67.1333V67.1294Z" fill="#D71921"/>
<path d="M75.2355 66.3942C75.3954 66.2152 75.5895 66.1238 75.8217 66.1238C75.894 66.1238 75.9663 66.1314 76.031 66.1428L75.9321 66.8247C75.8598 66.7523 75.7532 66.7142 75.6162 66.7104C75.4639 66.7218 75.3345 66.8438 75.2355 67.0761V68.5884H74.6037V66.1962L75.2355 66.12V66.3942Z" fill="#D71921"/>
<path d="M76.3234 67.3542C76.3234 66.9923 76.4299 66.6952 76.6393 66.4666C76.8486 66.2381 77.1189 66.12 77.45 66.12C77.7812 66.12 78.0438 66.2343 78.2379 66.4666C78.432 66.6952 78.531 66.9923 78.531 67.3542V67.6018H76.978C76.9933 67.7313 77.0466 67.8342 77.1341 67.9103C77.2254 67.9827 77.3282 68.0208 77.45 68.0208C77.6594 68.0208 77.8459 67.9561 78.0133 67.8227L78.3749 68.2151C78.2113 68.4627 77.903 68.5846 77.4538 68.5846C77.1227 68.5846 76.8524 68.4703 76.6431 68.2379C76.4337 68.0094 76.3272 67.7123 76.3272 67.3504M77.7697 66.7942C77.6784 66.718 77.5756 66.6838 77.4538 66.6838C77.332 66.6838 77.2292 66.7219 77.1379 66.7942C77.0465 66.8666 77.0047 66.9695 77.0047 67.1028H77.9068C77.9068 66.9695 77.8611 66.8666 77.7735 66.7942H77.7697Z" fill="#D71921"/>
<path d="M79.6465 67.0114V68.5884H79.0147V66.1962L79.6465 66.12V66.3409C79.7874 66.1962 79.9663 66.1238 80.187 66.1238C80.4725 66.1238 80.6894 66.219 80.8379 66.4057C81.0016 66.2152 81.249 66.1238 81.5801 66.1238C81.8656 66.1238 82.0825 66.219 82.2348 66.4057C82.3832 66.5961 82.4594 66.8133 82.4594 67.0571V68.5846H81.8275V67.2285C81.8275 67.0647 81.7933 66.939 81.7247 66.8476C81.6562 66.7561 81.5497 66.7104 81.3974 66.7066C81.2718 66.7142 81.1652 66.8057 81.0739 66.9771C81.0663 67.0266 81.0625 67.0799 81.0625 67.1333V68.5846H80.4306V67.2285C80.4306 67.0647 80.3964 66.939 80.3279 66.8476C80.2593 66.7561 80.149 66.7104 80.0005 66.7066C79.8635 66.7142 79.7417 66.8171 79.6427 67.0075" fill="#D71921"/>
<path d="M83.0834 65.2858C83.1443 65.221 83.228 65.1639 83.327 65.1639C83.4335 65.1639 83.5173 65.221 83.5782 65.2858C83.6391 65.3543 83.6695 65.4343 83.6695 65.5334C83.6695 65.6324 83.6391 65.7124 83.5782 65.781C83.5173 65.8457 83.4335 65.88 83.3308 65.88C83.228 65.88 83.1443 65.8457 83.0834 65.781C83.0225 65.7162 82.992 65.6324 82.992 65.5334C82.992 65.4343 83.0225 65.3505 83.0834 65.2858ZM83.6467 66.1238H83.0148V68.5884H83.6467V66.1238Z" fill="#D71921"/>
<path d="M85.5496 67.7123V66.12H86.1815V68.5846H85.5496V68.3598C85.3974 68.5084 85.2185 68.5808 85.0092 68.5808C84.7237 68.5808 84.5067 68.4856 84.3583 68.2989C84.2099 68.1084 84.1337 67.8913 84.1337 67.6475V66.12H84.7656V67.4761C84.7656 67.6399 84.8036 67.7694 84.8798 67.857C84.9559 67.9484 85.0663 67.9942 85.2185 67.998C85.3479 67.9865 85.4621 67.8913 85.5535 67.7085" fill="#D71921"/>
<path d="M87.3461 67.0114V68.5884H86.7142V66.1962L87.3461 66.12V66.3409C87.4869 66.1962 87.6658 66.1238 87.8866 66.1238C88.172 66.1238 88.389 66.219 88.5412 66.4057C88.7049 66.2152 88.9523 66.1238 89.2834 66.1238C89.5689 66.1238 89.7859 66.219 89.9343 66.4057C90.0866 66.5961 90.1589 66.8133 90.1589 67.0571V68.5846H89.527V67.2285C89.527 67.0647 89.4928 66.939 89.4243 66.8476C89.3558 66.7561 89.2492 66.7104 89.0969 66.7066C88.9713 66.7142 88.8648 66.8057 88.7734 66.9771C88.7658 67.0266 88.762 67.0799 88.762 67.1333V68.5846H88.134V67.2285C88.134 67.0647 88.0997 66.939 88.0312 66.8476C87.9627 66.7561 87.8523 66.7104 87.7039 66.7066C87.5668 66.7142 87.4488 66.8171 87.3461 67.0075" fill="#D71921"/>
<path d="M92.5159 68.2799C92.2913 68.0742 92.1771 67.8075 92.1771 67.4799V67.2323C92.1771 66.9047 92.2913 66.638 92.5159 66.4323C92.7404 66.2266 93.0031 66.1238 93.3076 66.1238C93.6654 66.1238 93.9661 66.2647 94.2058 66.5428L93.7567 66.9123C93.6235 66.7638 93.4712 66.6914 93.3076 66.6914C93.1591 66.6914 93.0259 66.7561 92.9117 66.8895C92.8013 67.019 92.7442 67.179 92.7442 67.358C92.7442 67.537 92.7975 67.6932 92.9003 67.8265C93.0069 67.9561 93.1401 68.0246 93.3038 68.0246C93.4674 68.0246 93.6197 67.9523 93.7529 67.8037L94.202 68.1732C93.9622 68.4513 93.6616 68.5922 93.3 68.5922C92.9993 68.5922 92.7366 68.4894 92.5121 68.2837" fill="#D71921"/>
<path d="M94.6968 66.4209C94.9823 66.2228 95.3134 66.1238 95.6864 66.1238C95.9567 66.1238 96.1698 66.2038 96.3259 66.3714C96.4819 66.5352 96.5618 66.7828 96.5618 67.1104V68.5884H95.93V68.3903C95.7473 68.5198 95.5836 68.5884 95.4352 68.5884C95.1345 68.5884 94.9099 68.5198 94.7615 68.3789C94.6092 68.238 94.5369 68.0475 94.5369 67.7999C94.5369 67.5713 94.6092 67.3656 94.7501 67.1828C94.8909 67.0037 95.1231 66.9123 95.439 66.9123C95.5836 66.9123 95.7511 66.9618 95.9338 67.0609V66.9885C95.9338 66.8095 95.812 66.7104 95.5722 66.6914C95.302 66.6914 95.0926 66.7409 94.9404 66.8399L94.693 66.4209H94.6968ZM95.9338 67.8494V67.5713C95.8729 67.4456 95.7321 67.3809 95.5075 67.3809C95.2373 67.4151 95.0964 67.5294 95.0774 67.7275C95.0926 67.9218 95.2335 68.0284 95.5075 68.0437C95.7321 68.0437 95.8767 67.9789 95.9338 67.8494Z" fill="#D71921"/>
<path d="M97.7072 66.3942C97.8671 66.2152 98.065 66.1238 98.2934 66.1238C98.3657 66.1238 98.438 66.1314 98.5027 66.1428L98.4038 66.8247C98.3315 66.7523 98.2249 66.7142 98.0879 66.7104C97.9356 66.7218 97.8062 66.8438 97.7034 67.0761V68.5884H97.0716V66.1962L97.7034 66.12V66.3942H97.7072Z" fill="#D71921"/>
<path d="M98.7951 67.3542C98.7951 66.9923 98.9017 66.6952 99.111 66.4666C99.3204 66.2381 99.5906 66.12 99.9217 66.12C100.253 66.12 100.516 66.2343 100.71 66.4666C100.904 66.6952 101.003 66.9923 101.003 67.3542V67.6018H99.4498C99.465 67.7313 99.5183 67.8342 99.6058 67.9103C99.6972 67.9827 99.7999 68.0208 99.9217 68.0208C100.131 68.0208 100.318 67.9561 100.485 67.8227L100.847 68.2151C100.683 68.4627 100.375 68.5846 99.9256 68.5846C99.5944 68.5846 99.3242 68.4703 99.1148 68.2379C98.9055 68.0094 98.7989 67.7123 98.7989 67.3504M100.241 66.7942C100.15 66.718 100.047 66.6838 99.9256 66.6838C99.8038 66.6838 99.701 66.7219 99.6096 66.7942C99.5183 66.8666 99.4764 66.9695 99.4764 67.1028H100.375C100.375 66.9695 100.329 66.8666 100.241 66.7942Z" fill="#D71921"/>
<path d="M71.9543 75.148V71.7196L72.5481 71.6473V71.8454C72.7041 71.7158 72.8602 71.6473 73.0124 71.6473C73.3359 71.6473 73.5948 71.7692 73.7851 72.0168C73.9754 72.2644 74.0705 72.5501 74.0705 72.8777C74.0705 73.2053 73.9754 73.4948 73.7851 73.7386C73.5948 73.9824 73.3359 74.1081 73.0124 74.1081C72.7993 74.0928 72.6432 74.0243 72.5481 73.91V75.148H71.9543ZM72.5481 72.6567V73.0567C72.5747 73.3348 72.7231 73.4948 72.9934 73.5443C73.3321 73.5138 73.5225 73.3081 73.5643 72.931C73.5491 72.4701 73.3588 72.2339 72.9934 72.2187C72.7269 72.2682 72.5785 72.4168 72.5481 72.6605V72.6567Z" fill="#D71921"/>
<path d="M74.3781 72.8815C74.3781 72.5196 74.4771 72.2263 74.675 71.9939C74.8729 71.7654 75.1279 71.6473 75.4363 71.6473C75.7446 71.6473 75.992 71.7616 76.1785 71.9939C76.3612 72.2263 76.4525 72.5196 76.4525 72.8815V73.1291H74.9947C75.01 73.2586 75.0594 73.3615 75.1432 73.4376C75.2269 73.5138 75.3259 73.5481 75.4401 73.5481C75.638 73.5481 75.8131 73.4834 75.9691 73.35L76.3079 73.7424C76.1518 73.99 75.8625 74.1119 75.4401 74.1119C75.1318 74.1119 74.8767 73.9976 74.6788 73.7652C74.4809 73.5367 74.3819 73.2396 74.3819 72.8777M75.7369 72.3215C75.6532 72.2453 75.5542 72.2111 75.4401 72.2111C75.3259 72.2111 75.2269 72.2491 75.1432 72.3215C75.0594 72.3939 75.0176 72.4967 75.0176 72.6301H75.8625C75.8625 72.4967 75.8207 72.3977 75.7369 72.3215Z" fill="#D71921"/>
<path d="M77.4654 71.9215C77.6177 71.7425 77.8004 71.651 78.0174 71.651C78.0859 71.651 78.1506 71.6587 78.2153 71.6701L78.1239 72.3519C78.0554 72.2796 77.9565 72.2415 77.827 72.2377C77.6824 72.2491 77.5644 72.371 77.4693 72.6034V74.1195H76.8755V71.7272L77.4693 71.651V71.9253L77.4654 71.9215Z" fill="#D71921"/>
<path d="M79.7985 71.7196C79.9089 71.7767 80.0117 71.8567 80.1068 71.9672L79.7757 72.4015C79.6805 72.2682 79.5587 72.2034 79.4179 72.2034C79.2771 72.2034 79.1781 72.2339 79.1324 72.2948C79.0829 72.3558 79.0829 72.4129 79.1324 72.4624C79.1819 72.5119 79.2733 72.5538 79.4179 72.5881C79.6272 72.611 79.7985 72.6796 79.9355 72.7976C80.0688 72.9157 80.1373 73.1176 80.1373 73.4071C80.1373 73.6395 80.0573 73.8223 79.9013 73.948C79.7414 74.0776 79.5587 74.1385 79.3494 74.1385C79.14 74.1385 78.9802 74.1042 78.8508 74.0395C78.7175 73.9709 78.6034 73.8833 78.5044 73.7728L78.8317 73.3424C78.9269 73.4757 79.0753 73.5519 79.2771 73.5747C79.4407 73.5747 79.5435 73.5443 79.593 73.4833C79.6387 73.4224 79.6463 73.3614 79.612 73.3005C79.5777 73.2395 79.4674 73.1976 79.2771 73.1748C79.1058 73.1519 78.9459 73.091 78.8051 72.9881C78.6604 72.8891 78.5919 72.6986 78.5919 72.4205C78.5919 72.1653 78.6719 71.971 78.8355 71.8377C78.9992 71.7044 79.1667 71.6358 79.338 71.6358C79.5359 71.6358 79.6919 71.6625 79.8023 71.7196" fill="#D71921"/>
<path d="M80.7541 73.7766C80.5486 73.5366 80.4458 73.2357 80.4458 72.8814C80.4458 72.5272 80.5486 72.2262 80.7541 71.9862C80.9596 71.7462 81.2147 71.6282 81.523 71.6282C81.8313 71.6282 82.0863 71.7462 82.2918 71.9862C82.4974 72.2262 82.6001 72.5233 82.6001 72.8814C82.6001 73.2395 82.4974 73.5404 82.2918 73.7804C82.0863 74.0204 81.8275 74.1385 81.523 74.1385C81.2185 74.1385 80.9596 74.0166 80.7541 73.7766ZM81.523 73.5404C81.6828 73.5404 81.8122 73.4795 81.915 73.35C82.014 73.2242 82.0673 73.0681 82.0673 72.8814C82.0673 72.6948 82.0178 72.5386 81.915 72.4129C81.816 72.2872 81.6828 72.2224 81.523 72.2224C81.3631 72.2224 81.2337 72.2834 81.1347 72.4129C81.0358 72.5386 80.9825 72.6948 80.9825 72.8814C80.9825 73.0681 81.032 73.2242 81.1347 73.35C81.2337 73.4757 81.3669 73.5404 81.5268 73.5404H81.523Z" fill="#D71921"/>
<path d="M83.5971 72.5463V74.1119H83.0034V71.7196L83.5971 71.6473V71.872C83.7418 71.7235 83.9092 71.6511 84.1072 71.6511C84.3736 71.6511 84.5791 71.7463 84.72 71.933C84.8608 72.1234 84.9331 72.3406 84.9331 72.5844V74.1119H84.3393V72.7558C84.3393 72.592 84.3051 72.4663 84.2328 72.3748C84.1604 72.2834 84.0539 72.2377 83.913 72.2301C83.7912 72.2415 83.6847 72.3444 83.5971 72.5425" fill="#D71921"/>
<path d="M85.4705 71.9443C85.7407 71.7463 86.049 71.651 86.403 71.651C86.658 71.651 86.856 71.7348 87.0044 71.8986C87.1528 72.0624 87.2252 72.31 87.2252 72.6376V74.1156H86.6314V73.9176C86.4601 74.0471 86.304 74.1156 86.167 74.1156C85.8854 74.1156 85.6722 74.0471 85.5314 73.9061C85.3906 73.7652 85.3182 73.5747 85.3182 73.3271C85.3182 73.0986 85.3829 72.8929 85.5162 72.71C85.6494 72.5272 85.8663 72.4396 86.1632 72.4396C86.3002 72.4396 86.4563 72.4891 86.6276 72.5881V72.5157C86.6276 72.3367 86.5134 72.2377 86.2888 72.2186C86.0338 72.2186 85.8359 72.2681 85.6951 72.3672L85.4629 71.9482L85.4705 71.9443ZM86.6352 73.3728V73.0948C86.5781 72.969 86.4449 72.9043 86.2317 72.9043C85.9767 72.9386 85.8435 73.0529 85.8283 73.2509C85.8435 73.4452 85.9767 73.5519 86.2317 73.5671C86.4449 73.5671 86.5781 73.5024 86.6352 73.3728Z" fill="#D71921"/>
<path d="M88.3473 70.4168H87.7535V74.1119H88.3473V70.4168Z" fill="#D71921"/>
<path d="M91.4044 74.1118C91.1647 74.1118 90.9743 74.0356 90.8335 73.8757C90.6927 73.7195 90.6204 73.5176 90.6204 73.2738V72.2072H90.3044V71.651H90.6204V70.9844L91.2141 70.9082V71.651H91.5301V72.2072H91.2141V73.1747C91.2141 73.3043 91.237 73.3995 91.2865 73.4528C91.3321 73.5062 91.393 73.5328 91.4691 73.5328C91.492 73.5328 91.5453 73.5214 91.629 73.5023L91.7546 73.9976C91.6518 74.0737 91.5377 74.1118 91.4044 74.1118Z" fill="#D71921"/>
<path d="M92.298 73.7766C92.0925 73.5366 91.9897 73.2357 91.9897 72.8814C91.9897 72.5272 92.0925 72.2262 92.298 71.9862C92.5036 71.7462 92.7624 71.6282 93.0669 71.6282C93.3714 71.6282 93.6302 71.7462 93.8358 71.9862C94.0413 72.2262 94.1441 72.5233 94.1441 72.8814C94.1441 73.2395 94.0413 73.5404 93.8358 73.7804C93.6302 74.0204 93.3714 74.1385 93.0669 74.1385C92.7624 74.1385 92.5036 74.0166 92.298 73.7766ZM93.0669 73.5404C93.2268 73.5404 93.36 73.4795 93.459 73.35C93.5579 73.2242 93.6112 73.0681 93.6112 72.8814C93.6112 72.6948 93.5617 72.5386 93.459 72.4129C93.36 72.2872 93.2268 72.2224 93.0669 72.2224C92.907 72.2224 92.7776 72.2834 92.6787 72.4129C92.5797 72.5386 92.5264 72.6948 92.5264 72.8814C92.5264 73.0681 92.5759 73.2242 92.6787 73.35C92.7776 73.4757 92.9109 73.5404 93.0707 73.5404H93.0669Z" fill="#D71921"/>
<path d="M95.827 73.2396V71.6473H96.4207V74.1119H95.827V73.8871C95.6823 74.0357 95.5148 74.1081 95.3169 74.1081C95.0505 74.1081 94.8449 74.0128 94.7041 73.8262C94.5633 73.6357 94.491 73.4186 94.491 73.1748V71.6473H95.0847V73.0034C95.0847 73.1672 95.119 73.2929 95.1913 73.3843C95.2598 73.4757 95.3702 73.5214 95.511 73.5291C95.6328 73.5176 95.7394 73.4224 95.827 73.2396Z" fill="#D71921"/>
<path d="M97.1409 73.8033C96.9278 73.5976 96.825 73.331 96.825 73.0034V72.7558C96.825 72.4282 96.9316 72.1615 97.1409 71.9558C97.3541 71.7501 97.6015 71.6473 97.8832 71.6473C98.2219 71.6473 98.5036 71.7882 98.7281 72.0663L98.3056 72.4358C98.18 72.2872 98.0354 72.2149 97.8832 72.2149C97.7423 72.2149 97.6167 72.2796 97.5139 72.4129C97.4074 72.5425 97.3541 72.6986 97.3541 72.8815C97.3541 73.0643 97.4036 73.2167 97.5025 73.35C97.6015 73.4795 97.7271 73.5481 97.8832 73.5481C98.0392 73.5481 98.18 73.4757 98.3056 73.3272L98.7281 73.6967C98.5036 73.9748 98.2219 74.1157 97.8832 74.1157C97.6015 74.1157 97.3541 74.0129 97.1409 73.8071" fill="#D71921"/>
<path d="M99.7432 72.4472V74.1119H99.1495V70.4168H99.7432V71.872C99.8879 71.7234 100.055 71.6511 100.249 71.6511C100.52 71.6511 100.721 71.7463 100.862 71.9329C101.003 72.1234 101.075 72.3405 101.075 72.5843V74.1119H100.482V72.7557C100.482 72.5919 100.447 72.4662 100.375 72.3748C100.303 72.2834 100.196 72.2377 100.055 72.2301C99.9336 72.2415 99.827 72.3101 99.7394 72.4434" fill="#D71921"/>
<path d="M59.2797 43.2642C59.3254 42.4718 59.3863 39.2834 55.0586 39.1615C54.4458 39.1044 51.5036 39.3177 50.5482 42.1785C50.3883 42.6394 49.2693 47.0049 54.7693 47.9039C55.3098 47.9305 57.4565 48.1553 59.1351 46.544C59.314 46.304 59.3596 45.9421 58.8382 45.744C58.3167 45.5459 57.7648 46.0602 57.7648 46.0602C57.7648 46.0602 56.2005 47.3706 53.9053 46.5287C53.3382 46.304 52.0897 45.8278 51.7966 44.1136H58.3776C58.3776 44.1136 59.234 44.1898 59.2797 43.2642ZM51.7966 43.028C52.1773 40.8757 53.6274 40.4758 54.2783 40.3767C57.8866 39.8929 57.9399 43.028 57.9399 43.028H51.8004H51.7966Z" fill="#0DB04B"/>
<path d="M48.3749 42.1062C48.2074 40.1482 46.1939 39.6416 45.9046 39.5578C43.324 38.8683 42.0185 40.2891 41.7825 40.5825V36.7808C41.7825 36.4798 41.4665 36.2322 41.0821 36.2322C40.6977 36.2322 40.3818 36.476 40.3818 36.7808V47.3478C40.3818 47.6487 40.6977 47.8963 41.0821 47.8963C41.4665 47.8963 41.7825 47.6525 41.7825 47.3478V42.3957C41.8967 41.2681 42.989 40.7272 43.2973 40.6091C46.7039 39.8244 46.9932 42.3424 46.9932 42.3424V44.3537C46.9932 45.2108 46.9932 46.2926 46.9932 47.2906V47.3478C46.9932 47.6487 47.3053 47.8963 47.6859 47.8963C48.0666 47.8963 48.3787 47.6525 48.3787 47.3478V46.9211C48.3787 45.0127 48.3787 42.3043 48.3749 42.1062Z" fill="#0DB04B"/>
<path d="M69.9219 46.8716L66.2793 42.9785C66.2793 42.9785 69.488 40.6548 69.6783 40.4682C69.8686 40.2777 69.8306 40.0339 69.4728 39.7749C69.1112 39.5158 68.6697 39.7825 68.6697 39.7825L63.1697 43.828V36.9484C63.1697 36.6398 62.8461 36.3884 62.4503 36.3884C62.0544 36.3884 61.7309 36.6398 61.7309 36.9484V47.0506V47.3592C61.7309 47.6601 62.0544 47.9039 62.4503 47.9039C62.8461 47.9039 63.1697 47.6601 63.1697 47.3592V45.5498V45.1688L65.1793 43.668C65.1793 43.668 68.5174 47.3706 68.8942 47.7249C69.271 48.0753 69.6783 47.9153 69.9409 47.782C70.4624 47.4315 69.9219 46.883 69.9219 46.883" fill="#0DB04B"/>
<path d="M40.3894 69.3084C40.5568 71.274 42.5741 71.7806 42.8672 71.8644C45.4555 72.5539 46.7648 71.1292 47.0046 70.8359V74.649C47.0046 74.9537 47.3205 75.1975 47.7087 75.1975C48.097 75.1975 48.4129 74.9537 48.4129 74.649V64.1011C48.4129 63.8039 48.1046 63.5639 47.7202 63.5639H47.6935C47.3129 63.5639 47.0008 63.8039 47.0008 64.1011V69.0151C46.8866 70.1464 45.8932 70.7026 45.4783 70.8054C42.0603 71.5939 41.771 69.0684 41.771 69.0684V67.0495C41.771 66.2266 41.771 65.0534 41.771 64.0934C41.771 63.7963 41.4589 63.5525 41.0783 63.5525C40.6939 63.5525 40.3856 63.7925 40.3856 64.0934C40.3856 66.0133 40.3856 69.1027 40.3894 69.3084Z" fill="#0DB04B"/>
<path d="M54.8916 63.3468C50.4041 63.0497 49.7799 66.8513 49.8065 67.4723C49.8788 71.5673 53.1903 71.9215 53.8602 71.9634C58.637 72.2034 58.892 68.6989 58.9453 68.0208C58.9986 63.4458 54.8916 63.3468 54.8916 63.3468ZM54.0695 70.9463C53.6089 70.9159 51.3328 70.6492 51.2833 67.5446C51.3062 67.0875 51.5574 64.2267 54.6404 64.4477C54.6404 64.4477 57.4152 64.4591 57.5598 67.9599C57.5218 68.4703 57.3505 71.1254 54.0657 70.9425L54.0695 70.9463Z" fill="#0DB04B"/>
<path d="M69.1912 64.8591V64.021C69.1912 63.7277 68.8981 63.4915 68.5365 63.4915C68.1749 63.4915 67.8818 63.7277 67.8818 64.021C67.8818 64.4782 67.8818 65 67.8818 65.5333V65.7086C67.8818 67.1828 67.8476 68.1046 67.7715 68.4779C67.0216 70.9387 65.3849 70.8816 64.4258 70.9082C62.2715 70.8549 62.4161 68.2265 62.4161 68.2265V65.2438V64.0172C62.4161 63.7239 62.1154 63.4877 61.75 63.4877C61.3808 63.4877 61.0839 63.7239 61.0839 64.0172C61.0839 64.2915 61.0839 64.5886 61.0839 64.8972C61.0839 65.8495 61.0801 67.4761 61.0839 68.935C61.2171 71.3958 62.9984 71.9787 64.1898 71.9977C66.4697 72.2377 67.6687 70.7254 67.8095 70.5349H67.8171V71.4758C67.8171 71.7501 68.0912 71.9939 68.4528 72.0091C68.8448 72.0282 69.1722 71.7882 69.1722 71.4949V70.4587V67.0151C69.1722 67.0151 69.1836 66.0857 69.1874 65.2438V64.8591H69.1912Z" fill="#0DB04B"/>
<path d="M97.9893 63.5944H71.281C71.1478 63.5944 71.0412 63.5106 71.0412 63.4078V63.3506C71.0412 63.2478 71.1478 63.164 71.281 63.164H97.9893C98.1225 63.164 98.2291 63.2478 98.2291 63.3506V63.4078C98.2291 63.5106 98.1225 63.5944 97.9893 63.5944Z" fill="#0DB04B"/>
<path d="M45.7747 51.9417C43.194 51.2522 41.8885 52.6731 41.6525 52.9664V49.1647C41.6525 48.8638 41.3404 48.62 40.9522 48.62C40.5639 48.62 40.2518 48.8638 40.2518 49.1647V59.7317C40.2518 60.0327 40.5677 60.2803 40.9522 60.2803C41.3366 60.2803 41.6525 60.0365 41.6525 59.7317V54.7796C41.7667 53.6521 42.8591 53.1074 43.1674 52.9931C46.574 52.2084 46.8633 54.7263 46.8633 54.7263V56.7376C46.8633 57.5566 46.8633 58.7946 46.8633 59.7508C46.8633 60.0479 47.1716 60.2917 47.556 60.2917C47.9404 60.2917 48.2487 60.0517 48.2487 59.7546C48.2487 57.8423 48.2487 54.6958 48.2449 54.4901C48.0774 52.5322 46.0639 52.0255 45.7747 51.9417Z" fill="#D71921"/>
<path d="M55.0585 51.7018C54.4457 51.6446 51.5034 51.8541 50.5481 54.7187C50.4415 55.4501 49.4252 60.0137 54.7692 60.4441C55.3097 60.4708 57.4564 60.6955 59.1349 59.0842C59.3138 58.8442 59.3595 58.4823 58.8381 58.2842C58.3166 58.0862 57.7647 58.6004 57.7647 58.6004C57.7647 58.6004 56.2003 59.9146 53.9052 59.0689C53.3381 58.8442 52.0896 58.368 51.7965 56.6539H58.3775C58.3775 56.6539 59.2339 56.73 59.2796 55.8044C59.3253 55.012 59.3976 51.9303 55.0585 51.698M51.7927 55.5682C52.1733 53.416 53.6235 53.0122 54.2744 52.9169C57.8827 52.4331 57.936 55.5682 57.936 55.5682H51.7965H51.7927Z" fill="#D71921"/>
<path d="M72.5943 48.7382H72.3812C72.0538 48.7382 71.7912 48.9439 71.7912 49.1991V59.8232C71.7912 60.0785 72.0538 60.2842 72.3812 60.2842H72.5943C72.9217 60.2842 73.1843 60.0785 73.1843 59.8232V49.1991C73.1843 48.9439 72.9217 48.7382 72.5943 48.7382Z" fill="#D71921"/>
<path d="M88.5771 51.8884C85.9965 51.1989 84.691 52.6198 84.455 52.9131V49.1114C84.455 48.8105 84.1429 48.5667 83.7546 48.5667C83.3664 48.5667 83.0505 48.8105 83.0505 49.1114V59.7546C83.0505 60.0555 83.3664 60.3031 83.7546 60.3031C84.1429 60.3031 84.455 60.0593 84.455 59.7546V54.7263C84.5692 53.5988 85.6616 53.054 85.9699 52.9398C89.3764 52.155 89.6657 54.673 89.6657 54.673V56.6843C89.6657 57.5033 89.6657 58.7946 89.6657 59.7546C89.6657 60.0517 89.9778 60.2917 90.3584 60.2917C90.7391 60.2917 91.0512 60.0517 91.0512 59.7546C91.0512 57.8423 91.0512 54.6425 91.0474 54.433C90.8799 52.475 88.8664 51.9684 88.5771 51.8846" fill="#D71921"/>
<path d="M100.392 52.0332C100.004 52.0332 99.6917 52.277 99.6917 52.5817V57.4691C99.5775 58.5928 98.4851 59.1375 98.1768 59.2556C94.7702 60.0403 94.4809 57.5224 94.4809 57.5224V55.5073C94.4809 54.6883 94.4809 53.5112 94.4809 52.5513C94.4809 52.2541 94.1726 52.0142 93.7882 52.0142C93.4038 52.0142 93.0955 52.2541 93.0955 52.5513C93.0955 54.4635 93.0955 57.5529 93.0993 57.7586C93.2667 59.7166 95.2802 60.2232 95.5695 60.307C98.1501 60.9965 99.4557 59.5756 99.6917 59.2823V63.0611C99.6917 63.3621 100.008 63.6097 100.392 63.6097C100.776 63.6097 101.096 63.3659 101.096 63.0611V52.5817C101.096 52.2808 100.78 52.0332 100.392 52.0332Z" fill="#D71921"/>
<path d="M69.6215 54.4635C69.5986 53.5493 69.3588 53.3283 69.1038 52.9931C67.0713 50.9361 63.0557 52.1551 62.9796 52.1703C62.8996 52.1855 61.8377 52.4446 62.1308 52.9893C62.4239 53.534 63.3983 53.1493 63.6685 53.0693C64.4488 52.8369 65.3509 52.875 65.937 52.9093C68.3159 53.035 68.2246 54.5664 68.2246 54.5664V56.0025C64.6429 54.094 62.0965 56.1739 61.9138 56.4215C60.5816 57.9643 61.6626 59.4537 62.9491 60.0098C66.074 61.0803 68.2208 59.2594 68.2208 59.2594C68.2208 59.2594 68.2208 59.2442 68.2284 59.3165V59.7813C68.2284 60.0822 68.5405 60.3222 68.9287 60.3222C69.317 60.3222 69.6291 60.0784 69.6291 59.7813V58.4937C69.6291 57.1224 69.6367 55.0578 69.6215 54.4673M65.9066 59.2366C65.2443 59.3013 63.3107 59.5146 62.755 58.0061C62.5875 57.5757 62.9225 56.3301 65.3394 56.3186C65.3394 56.3186 67.9962 56.1701 68.1637 57.6595C68.1408 57.9871 68.2131 58.8518 65.9028 59.2327L65.9066 59.2366Z" fill="#D71921"/>
<path d="M80.1003 59.2899C79.5294 59.3775 79.1031 59.3242 78.829 59.1375C78.3418 58.8023 78.3038 58.0557 78.3304 57.7967V54.0559H78.3342V53.0541H80.0623C80.4162 53.0541 80.7245 52.8484 80.7474 52.5741C80.7702 52.2732 80.4657 52.0256 80.0851 52.0256H78.338V50.7533C78.338 50.7304 78.338 50.7076 78.3304 50.6847C78.3304 50.6847 78.3266 50.6542 78.3228 50.6428C78.3038 50.559 78.2581 50.479 78.1934 50.4143H78.1896C78.1896 50.4143 78.1744 50.3952 78.1629 50.3838C78.045 50.2771 77.8775 50.2009 77.6872 50.1933C77.2799 50.1743 76.945 50.4219 76.945 50.7342V52.0256H76.3778C76.0238 52.0256 75.7155 52.2313 75.6927 52.5056C75.6661 52.8065 75.9744 53.0541 76.355 53.0541H76.945V57.7281C76.9259 57.9643 76.865 59.2137 77.9041 59.9375C78.2353 60.1699 78.7796 60.4099 79.6131 60.4099C79.8453 60.4099 80.0965 60.3908 80.3744 60.3489C80.7512 60.2918 80.9986 60.0061 80.9225 59.7128C80.8501 59.4194 80.4848 59.229 80.1041 59.2861" fill="#D71921"/>
<path d="M79.5518 42.0604C79.529 41.1462 79.2892 40.9253 79.0342 40.5901C77.0016 38.533 72.9861 39.752 72.9099 39.7672C72.8338 39.7825 71.7681 40.0415 72.0611 40.5862C72.3542 41.131 73.3286 40.7462 73.5989 40.6662C74.3791 40.4339 75.2812 40.472 75.8674 40.5063C78.2463 40.632 78.1549 42.1633 78.1549 42.1633V43.5994C74.5733 41.6909 72.0269 43.7708 71.8442 44.0184C70.512 45.5612 71.593 47.0506 72.8795 47.6068C76.0044 48.6772 78.1511 46.8563 78.1511 46.8563C78.1511 46.8563 78.1511 46.8411 78.1587 46.9135V47.3782C78.1587 47.6792 78.4708 47.9191 78.8591 47.9191C79.2473 47.9191 79.5594 47.6754 79.5594 47.3782V46.0907C79.5594 44.7193 79.567 42.6547 79.5518 42.0643M75.8369 46.8335C75.1746 46.8983 73.2411 47.1116 72.6854 45.6031C72.5179 45.1726 72.8528 43.927 75.2698 43.9156C75.2698 43.9156 77.9265 43.767 78.094 45.2564C78.0712 45.584 78.1435 46.4488 75.8331 46.8297L75.8369 46.8335Z" fill="#0DB04B"/>
</svg>
