<svg width="16" height="16" viewBox="0 0 16 16" fill="none" xmlns="http://www.w3.org/2000/svg">
<path d="M10.0564 11.6071C13.3387 11.6071 16 9.01786 16 5.80357C16 2.58929 13.3387 0 10.0564 0C6.77412 0 4.11281 2.58929 4.11281 5.80357C4.11281 9.01786 6.77412 11.6071 10.0564 11.6071ZM10.0564 0.892857C12.8656 0.892857 15.1425 3.125 15.1425 5.83333C15.1425 8.57143 12.8656 10.7738 10.0564 10.7738C7.24724 10.7738 4.97036 8.54167 4.97036 5.83333C4.97036 3.09524 7.24724 0.892857 10.0564 0.892857Z" fill="#3F6B68"/>
<path d="M1.12627 15.2976C1.24455 15.2976 1.36283 15.2679 1.42197 15.1786L6.65587 10.0893C6.8333 9.91072 6.8333 9.64286 6.65587 9.49405C6.47845 9.31548 6.21233 9.31548 6.03491 9.49405L0.800971 14.5833C0.62355 14.7619 0.62355 15.0298 0.800971 15.1786C0.919251 15.2679 1.00799 15.2976 1.12627 15.2976Z" fill="#3F6B68"/>
</svg>
